<svg xmlns="http://www.w3.org/2000/svg" height="1130" width="1164">
 <g>
  <title>Labels</title>
 </g>
 <g>
  <title>Shapes</title>
  <rect fill="#00AA7F" height="31.81818" id="svg_2" stroke-width="0" width="121.21212" x="381.45457" y="120.00002" />
  <rect fill="#00AA7F" height="51.51515" id="svg_3" stroke-width="0" width="184.84849" x="384.48487" y="173.03033" />
  <rect fill="#00AA7F" height="31.81818" id="svg_4" stroke-width="0" width="98.48485" x="364.78789" y="263.93942" />
  <rect fill="#00AA7F" height="71.21212" id="svg_5" stroke-width="0" width="87.87879" x="398.12123" y="353.33336" />
  <rect fill="#00AA7F" height="37.87879" id="svg_6" stroke-width="0" width="166.66667" x="349.63638" y="471.51518" />
  <rect fill="#00AA7F" height="54.54546" id="svg_7" stroke-width="0" width="213.63637" x="320.8485" y="530.60609" />
  <rect fill="#00AA7F" height="51.51515" id="svg_8" stroke-width="0" width="109.09091" x="332.96972" y="589.697" />
  <rect fill="#00AA7F" height="28.78788" id="svg_9" stroke-width="0" width="163.63637" x="323.87881" y="668.48488" />
  <rect fill="#00AA7F" height="66.66667" id="svg_10" stroke-width="0" width="159.09091" x="423.87881" y="744.24245" />
  <rect fill="#00AA7F" height="31.81818" id="svg_11" stroke-width="0" width="151.51515" x="392.06063" y="827.57579" />
  <rect fill="#00AA7F" height="46.9697" id="svg_12" stroke-width="0" width="187.87879" x="389.03032" y="898.78791" />
  <rect fill="#00AA7F" height="31.81818" id="svg_13" stroke-width="0" width="100" x="739.03033" y="98.7879" />
  <rect fill="#00AA7F" height="30.30303" id="svg_14" stroke-width="0" width="151.51515" x="686.00002" y="232.12124" />
  <rect fill="#00AA7F" height="39.39394" id="svg_16" stroke-width="0" width="109.09091" x="651.15154" y="351.81821" />
  <rect fill="#00AA7F" height="42.42424" id="svg_17" stroke-width="0" width="90.90909" x="705.69699" y="430.60609" />
  <rect fill="#00AA7F" height="27.27273" id="svg_18" stroke-width="0" width="116.66667" x="723.87881" y="492.7273" />
  <rect fill="#00AA7F" height="30.30303" id="svg_19" stroke-width="0" width="104.54546" x="663.27275" y="571.51518" />
  <rect fill="#00AA7F" height="46.9697" id="svg_20" stroke-width="0" width="163.63637" x="673.87881" y="679.09093" />
  <rect fill="#00AA7F" height="25.75758" id="svg_21" stroke-width="0" width="212.12121" x="679.93942" y="751.81821" />
  <rect fill="#00AA7F" height="36.36364" id="svg_22" stroke-width="0" width="166.66667" x="669.33336" y="824.54549" />
  <rect fill="#00AA7F" height="33.33333" id="svg_23" stroke-width="0" width="151.51515" x="689.03033" y="936.6667" />
 </g>
</svg>