<svg xmlns="http://www.w3.org/2000/svg" height="1278" width="1416.0000000000002">
 <g>
  <title>Labels</title>
 </g>
 <g>
  <title>Shapes</title>
  <rect fill="#FF0000" height="30.95238" id="question-element" stroke-width="0" width="73.80953" x="781.61916" y="67.23803" />
  <rect fill="#00AA7F" height="26.19048" id="svg_3" stroke-width="0" width="164.28572" x="784.00011" y="117.23803" />
  <rect fill="#00AA7F" height="30.95238" id="svg_4" stroke-width="0" width="47.61905" x="784.00011" y="319.619" />
  <rect fill="#00AA7F" height="33.33333" id="svg_5" stroke-width="0" width="326.19049" x="991.14298" y="317.23804" />
  <rect fill="#00AA7F" height="30.95238" id="svg_6" stroke-width="0" width="83.33334" x="850.66678" y="376.76186" />
  <rect fill="#00AA7F" height="23.80952" id="svg_7" stroke-width="0" width="104.76191" x="1036.38107" y="381.52376" />
  <rect fill="#00AA7F" height="23.80952" id="svg_8" stroke-width="0" width="73.80953" x="917.33345" y="352.95233" />
  <rect fill="#00AA7F" height="28.57143" id="svg_9" stroke-width="0" width="233.33334" x="893.52392" y="510.0952" />
  <rect fill="#00AA7F" height="30.95238" id="svg_10" stroke-width="0" width="95.2381" x="784.00011" y="424.38091" />
  <rect fill="#00AA7F" height="28.57143" id="svg_11" stroke-width="0" width="92.85715" x="788.76201" y="636.28568" />
  <rect fill="#00AA7F" height="26.19048" id="svg_12" stroke-width="0" width="78.57143" x="1034.00012" y="633.90473" />
  <rect fill="#00AA7F" height="28.57143" id="svg_13" stroke-width="0" width="316.66668" x="905.42869" y="660.0952" />
  <rect fill="#00AA7F" height="23.80952" id="svg_14" stroke-width="0" width="271.42858" x="853.04773" y="693.42854" />
  <rect fill="#00AA7F" height="21.42857" id="svg_15" stroke-width="0" width="42.85714" x="784.00011" y="719.61902" />
  <rect fill="#00AA7F" height="26.19048" id="svg_16" stroke-width="0" width="147.61905" x="1155.4287" y="910.09522" />
 </g>
</svg>