<svg xmlns="http://www.w3.org/2000/svg" height="708" width="1075">
 <g>
  <title>Labels</title>
 </g>
 <g>
  <title>Shapes</title>
  <rect fill="#00AA7F" height="33.98058" id="svg_2" stroke-width="0" width="220.38835" x="109.46602" y="4.62137" />
  <rect fill="#00AA7F" height="28.15534" id="svg_3" stroke-width="0" width="65.04854" x="768.68932" y="39.57283" />
  <rect fill="#00AA7F" height="41.74757" id="svg_4" stroke-width="0" width="126.21359" x="775.48544" y="100.73788" />
  <rect fill="#00AA7F" height="52.42718" id="svg_5" stroke-width="0" width="137.86408" x="884.2233" y="155.10681" />
  <rect fill="#00AA7F" height="30.09709" id="svg_6" stroke-width="0" width="140.7767" x="887.13592" y="218.21361" />
  <rect fill="#00AA7F" height="50.48544" id="svg_8" stroke-width="0" width="118.4466" x="887.13592" y="300.73788" />
  <rect fill="#00AA7F" height="38.83495" id="svg_9" stroke-width="0" width="148.54369" x="888.1068" y="358.99031" />
  <rect fill="#00AA7F" height="29.12621" id="svg_10" stroke-width="0" width="120.38835" x="884.2233" y="412.38836" />
  <rect fill="#00AA7F" height="32.03883" id="svg_11" stroke-width="0" width="142.71845" x="884.2233" y="455.10681" />
  <rect fill="#00AA7F" height="38.83495" id="svg_12" stroke-width="0" width="227.18447" x="886.16505" y="509.47574" />
  <rect fill="#00AA7F" height="36.8932" id="svg_14" stroke-width="0" width="116.50485" x="882.28155" y="555.10681" />
  <rect fill="#00AA7F" height="50.48544" id="svg_15" stroke-width="0" width="129.12621" x="625" y="662.8738" />
  <rect fill="#00AA7F" height="28.15534" id="svg_16" stroke-width="0" width="154.36893" x="93.93204" y="591.02914" />
  <rect fill="#00AA7F" height="36.8932" id="svg_17" stroke-width="0" width="168.93204" x="103.64078" y="524.03885" />
  <rect fill="#00AA7F" height="29.12621" id="svg_18" stroke-width="0" width="148.54369" x="-6.06796" y="470.64079" />
  <rect fill="#00AA7F" height="51.45631" id="svg_19" stroke-width="0" width="146.60194" x="-15.7767" y="395.88351" />
  <rect fill="#00AA7F" height="35.92233" id="svg_20" stroke-width="0" width="117.47573" x="-10.92233" y="331.80584" />
  <rect fill="#00AA7F" height="38.83495" id="svg_21" stroke-width="0" width="171.84466" x="-12.86408" y="150.25244" />
  <rect fill="#00AA7F" height="33.98058" id="svg_22" stroke-width="0" width="202.91262" x="-10.92233" y="98.79613" />
  <rect fill="#00AA7F" height="36.8932" id="svg_23" stroke-width="0" width="205.82524" x="100.72816" y="49.28157" />
 </g>
</svg>