<svg xmlns="http://www.w3.org/2000/svg" height="590" width="776">
 <g>
  <title>Labels</title>
 </g>
 <g>
  <title>Shapes</title>
  <rect fill="#00AA7F" height="19.84127" id="svg_2" stroke-width="0" width="60.31746" x="107.33332" y="77.46029" />
  <rect fill="#00AA7F" height="17.46032" id="svg_3" stroke-width="0" width="46.03175" x="201.77777" y="77.46029" />
  <rect fill="#00AA7F" height="15.87302" id="svg_4" stroke-width="0" width="41.26984" x="281.9365" y="83.01585" />
  <rect fill="#00AA7F" height="20.63492" id="svg_5" stroke-width="0" width="44.44444" x="373.99999" y="78.25394" />
  <rect fill="#00AA7F" height="21.42857" id="svg_6" stroke-width="0" width="36.50794" x="508.12697" y="75.87299" />
  <rect fill="#00AA7F" height="19.04762" id="svg_7" stroke-width="0" width="76.98413" x="323.20634" y="117.14283" />
  <rect fill="#00AA7F" height="15.07936" id="svg_8" stroke-width="0" width="33.33333" x="376.38094" y="259.99997" />
  <rect fill="#00AA7F" height="18.25397" id="svg_9" stroke-width="0" width="41.26984" x="454.15872" y="261.58727" />
  <rect fill="#00AA7F" height="23.80952" id="svg_10" stroke-width="0" width="34.12698" x="551.77776" y="256.82537" />
  <rect fill="#00AA7F" height="31.74603" id="svg_11" stroke-width="0" width="84.12698" x="483.5238" y="371.11108" />
  <rect fill="#00AA7F" height="20.63492" id="svg_12" stroke-width="0" width="64.28571" x="458.12697" y="458.41267" />
  <rect fill="#00AA7F" height="34.12698" id="svg_13" stroke-width="0" width="76.19048" x="542.25396" y="449.68251" />
  <rect fill="#00AA7F" height="26.98413" id="svg_14" stroke-width="0" width="78.57143" x="584.31745" y="534.60314" />
  <rect fill="#00AA7F" height="30.95238" id="svg_15" stroke-width="0" width="47.61905" x="362.88888" y="531.42854" />
  <rect fill="#00AA7F" height="18.25397" id="svg_16" stroke-width="0" width="48.4127" x="116.06348" y="537.77775" />
  <rect fill="#00AA7F" height="38.88889" id="svg_17" stroke-width="0" width="65.87302" x="186.6984" y="448.09521" />
  <rect fill="#00AA7F" height="23.01587" id="svg_18" stroke-width="0" width="51.5873" x="277.17459" y="456.03172" />
  <rect fill="#00AA7F" height="39.68254" id="svg_19" stroke-width="0" width="78.57143" x="350.19046" y="447.30156" />
  <rect fill="#00AA7F" height="21.42857" id="svg_20" stroke-width="0" width="50.79365" x="365.26983" y="383.80949" />
  <rect fill="#00AA7F" height="27.77778" id="svg_21" stroke-width="0" width="52.38095" x="277.96824" y="383.8095" />
  <rect fill="#00AA7F" height="31.74603" id="svg_22" stroke-width="0" width="50.79365" x="197.80951" y="382.22219" />
  <rect fill="#00AA7F" height="19.84127" id="svg_23" stroke-width="0" width="44.44444" x="278.76189" y="259.20632" />
  <rect fill="#00AA7F" height="22.22222" id="svg_24" stroke-width="0" width="45.23809" x="203.36507" y="257.61902" />
  <rect fill="#00AA7F" height="20.63492" id="svg_25" stroke-width="0" width="54.7619" x="112.88888" y="257.61902" />
 </g>
</svg>