<svg xmlns="http://www.w3.org/2000/svg" height="1132" width="1431">
 <g>
  <title>Labels</title>
 </g>
 <g>
  <title>Shapes</title>
  <rect fill="#00AA7F" height="87.7551" id="svg_2" stroke-width="0" width="144.89796" x="417.97959" y="327.1837" />
  <rect fill="#00AA7F" height="79.59184" id="svg_3" stroke-width="0" width="183.67347" x="760.83673" y="339.42859" />
  <rect fill="#00AA7F" height="91.83673" id="svg_4" stroke-width="0" width="232.65306" x="1044.5102" y="337.38778" />
  <rect fill="#00AA7F" height="75.5102" id="svg_5" stroke-width="0" width="79.59184" x="420.0204" y="453.71431" />
  <rect fill="#00AA7F" height="106.12245" id="svg_6" stroke-width="0" width="124.4898" x="742.46938" y="429.22451" />
  <rect fill="#FF0000" height="112.2449" id="question-element" stroke-width="0" width="281.63265" x="1046.55101" y="423.10206" />
  <rect fill="#00AA7F" height="48.97959" id="svg_8" stroke-width="0" width="85.71429" x="422.06122" y="561.87757" />
  <rect fill="#00AA7F" height="79.59184" id="svg_9" stroke-width="0" width="118.36735" x="740.42856" y="549.63268" />
  <rect fill="#00AA7F" height="85.71429" id="svg_10" stroke-width="0" width="285.71428" x="1054.71428" y="547.59186" />
  <rect fill="#00AA7F" height="73.46939" id="svg_11" stroke-width="0" width="57.14286" x="444.5102" y="633.30614" />
  <rect fill="#00AA7F" height="91.83673" id="svg_12" stroke-width="0" width="116.32653" x="724.10203" y="637.38778" />
  <rect fill="#00AA7F" height="75.5102" id="svg_13" stroke-width="0" width="173.46939" x="1077.16326" y="649.63268" />
  <rect fill="#00AA7F" height="57.14286" id="svg_14" stroke-width="0" width="81.63265" x="440.42856" y="739.42859" />
  <rect fill="#00AA7F" height="81.63265" id="svg_15" stroke-width="0" width="102.04082" x="726.14285" y="741.46941" />
  <rect fill="#00AA7F" height="93.87755" id="svg_16" stroke-width="0" width="212.2449" x="1048.59183" y="739.42859" />
  <rect fill="#00AA7F" height="67.34694" id="svg_17" stroke-width="0" width="75.5102" x="442.46938" y="816.97961" />
  <rect fill="#00AA7F" height="79.59184" id="svg_18" stroke-width="0" width="100" x="717.97958" y="833.30614" />
  <rect fill="#00AA7F" height="87.7551" id="svg_19" stroke-width="0" width="375.5102" x="1054.71428" y="837.38778" />
  <rect fill="#00AA7F" height="55.10204" id="svg_20" stroke-width="0" width="63.26531" x="438.38775" y="919.02043" />
  <rect fill="#00AA7F" height="77.55102" id="svg_21" stroke-width="0" width="75.5102" x="717.97958" y="923.10206" />
  <rect fill="#00AA7F" height="85.71429" id="svg_22" stroke-width="0" width="232.65306" x="1054.71428" y="931.26533" />
  <rect fill="#00AA7F" height="67.34694" id="svg_23" stroke-width="0" width="55.10204" x="448.59183" y="988.40818" />
  <rect fill="#00AA7F" height="81.63265" id="svg_24" stroke-width="0" width="69.38775" x="726.14285" y="1014.9388" />
  <rect fill="#00AA7F" height="91.83673" id="svg_25" stroke-width="0" width="318.36735" x="1077.16326" y="1025.14288" />
 </g>
</svg>