<svg xmlns="http://www.w3.org/2000/svg" height="645" width="554">
 <g>
  <title>Labels</title>
 </g>
 <g>
  <title>Shapes</title>
  <rect fill="#00AA7F" height="24.34783" id="svg_2" stroke-width="0" width="103.47826" x="248.60873" y="8.04347" />
  <rect fill="#00AA7F" height="42.6087" id="svg_3" stroke-width="0" width="58.26087" x="353.82612" y="44.56521" />
  <rect fill="#00AA7F" height="42.6087" id="svg_4" stroke-width="0" width="51.30435" x="418.17395" y="70.65216" />
  <rect fill="#00AA7F" height="60" id="svg_5" stroke-width="0" width="69.56522" x="466.8696" y="116.73912" />
  <rect fill="#00AA7F" height="53.04348" id="svg_6" stroke-width="0" width="57.39131" x="472.95656" y="223.69565" />
  <rect fill="#00AA7F" height="35.65218" id="svg_8" stroke-width="0" width="113.04348" x="18.17393" y="74.99999" />
  <rect fill="#00AA7F" height="20.86957" id="svg_9" stroke-width="0" width="93.91305" x="26.86959" y="180.21739" />
  <rect fill="#00AA7F" height="50.43478" id="svg_10" stroke-width="0" width="60.86957" x="26.00002" y="215" />
  <rect fill="#00AA7F" height="31.30435" id="svg_11" stroke-width="0" width="71.30435" x="209.47829" y="485.43479" />
  <rect fill="#00AA7F" height="12.17391" id="svg_12" stroke-width="0" transform="rotate(44.0608 412.956 158.478)" width="34.78261" x="395.56525" y="152.3913" />
  <rect fill="#00AA7F" height="12.17391" id="svg_13" stroke-width="0" transform="rotate(-180 359.044 186.739)" width="34.78261" x="341.65253" y="180.65187" />
  <rect fill="#00AA7F" height="21.88521" id="svg_14" stroke-width="0" transform="rotate(-130.503 408.395 275.11)" width="34.78261" x="391.00352" y="264.16756" />
  <rect fill="#00AA7F" height="16.60003" id="svg_15" stroke-width="0" transform="rotate(-178.866 360.834 302.358)" width="34.78261" x="343.44301" y="294.05821" />
  <rect fill="#00AA7F" height="16.08013" id="svg_16" stroke-width="0" transform="rotate(175.642 193.605 237.758)" width="34.78261" x="176.21382" y="229.71817" />
  <rect fill="#00AA7F" height="13.15044" id="svg_17" stroke-width="0" transform="rotate(-157.913 186.772 259.214)" width="34.78261" x="169.38089" y="252.63891" />
  <rect fill="#00AA7F" height="21.88521" id="svg_18" stroke-width="0" transform="rotate(175.544 194.695 124.131)" width="34.78261" x="177.30392" y="113.18801" />
  <rect fill="#00AA7F" height="14.73331" id="svg_19" stroke-width="0" transform="rotate(-161.823 188.362 144.919)" width="34.78261" x="170.97093" y="137.55275" />
 </g>
</svg>