<?xml version="1.0" encoding="utf-8"?>
<!-- Generator: Adobe Illustrator 16.0.0, SVG Export Plug-In . SVG Version: 6.00 Build 0)  -->
<!DOCTYPE svg PUBLIC "-//W3C//DTD SVG 1.1//EN" "http://www.w3.org/Graphics/SVG/1.1/DTD/svg11.dtd">
<svg version="1.1" xmlns="http://www.w3.org/2000/svg" xmlns:xlink="http://www.w3.org/1999/xlink" x="0px" y="0px" width="711px"
	 height="498px" viewBox="0 0 711 498" enable-background="new 0 0 711 498" xml:space="preserve">
<g id="Fills">
</g>
<g id="Outlines">
	<g>
		<g>
			<path fill="#333333" d="M59.723,122.054c0.564-4.026,0.932-8.136,1.075-12.199c-0.567,0.326-1.134,0.651-1.702,0.976
				c5.506,2.385,9.384,7.228,14.574,10.159c0.915,0.516,1.906-0.152,1.978-1.135c0.482-6.521-2.372-12.425-4.647-18.368
				c-0.632-1.649-3.31-0.93-2.667,0.735c2.199,5.695,5.031,11.375,4.686,17.632c0.659-0.378,1.318-0.757,1.978-1.135
				c-5.399-2.788-9.357-7.626-15.029-9.955c-0.696-0.286-1.43,0.423-1.432,1.09c-0.012,3.992-0.69,8.024-0.286,12
				C58.329,122.626,59.597,122.955,59.723,122.054L59.723,122.054z"/>
		</g>
	</g>
	<g>
		<g>
			<path fill="#333333" d="M69.162,90.75c0.92-5.641-0.86-11.083-1.856-16.602c-0.808-4.475,1.735-4.251,5.191-6.067
				c3.095-1.626,6.082-3.447,9.185-5.059c1.548-0.805,0.182-3.13-1.364-2.334c-5.032,2.591-9.74,5.781-14.989,7.94
				c-0.515,0.211-0.961,0.614-0.934,1.227c0.301,6.989,2.661,13.656,3.08,20.667C67.529,91.437,68.998,91.755,69.162,90.75
				L69.162,90.75z"/>
		</g>
	</g>
	<g>
		<g>
			<path fill="#333333" d="M66.779,78.076c1.298,1.477,6.712-1.771,7.926-2.355c2.282-1.098,4.537-2.261,6.714-3.554
				c1.19-0.707,2.975-1.411,2.943-2.979c-0.008-0.407-0.312-0.658-0.695-0.695c-1.182-0.115-1.959,0.739-2.929,1.363
				c-1.681,1.083-3.422,2.084-5.159,3.075c-1.776,1.013-3.583,1.977-5.39,2.932c-0.741,0.392-2.345,1.653-3.189,1.68
				C66.718,77.551,66.6,77.872,66.779,78.076L66.779,78.076z"/>
		</g>
	</g>
	<g>
		<g>
			<path fill="#333333" d="M94.217,69.34c1.032-3.304,1.199-6.715,1.387-10.152c-0.637,0.366-1.274,0.731-1.911,1.097
				c4.555,2.86,6.78,8.828,13.067,7.784c0.687-0.114,1.187-0.891,1.178-1.547c-0.056-3.976-2.461-8.664-1.496-12.528
				c0.525-2.103-2.646-2.976-3.239-0.893c-1.211,4.25,1.312,9.146,1.527,13.421c0.393-0.516,0.785-1.031,1.178-1.547
				c-4.534,0.922-7.295-5.068-10.933-6.883c-0.809-0.403-1.965,0.073-1.911,1.097c0.175,3.347,0.187,6.653,0.033,10
				C93.066,69.851,94.03,69.937,94.217,69.34L94.217,69.34z"/>
		</g>
	</g>
	<g>
		<g>
			<path fill="#333333" d="M112.57,71.05c-0.51-0.801-0.422-0.765-1.167-1.217c-0.561-0.341-1.43,0.229-1.172,0.901
				c1.692,4.417,3.927,8.746,6.587,12.653c0.719,1.057,3.319,3.059,2.868,4.311c-1.284,3.555-3.224,6.896-5.079,10.174
				c-2.843,5.025-5.732,9.962-7.884,15.334c-0.85,2.122-5.95,2.3-7.89,2.632c-2.955,0.506-5.947,0.73-8.905,1.209
				c-2.14,0.346-0.807,4.043,1.179,2.796c0.256-0.163,0.527-0.299,0.813-0.41c0.897-0.343,0.897-1.48,0-1.823
				c-0.286-0.11-0.557-0.247-0.813-0.41c-0.257,0.951-0.515,1.901-0.772,2.851c4.142-0.341,8.293-0.933,12.368-1.745
				c3.424-0.682,5.853-0.958,7.028-4.272c3.377-9.526,9.992-17.543,13.354-27.122c0.235-0.671-0.171-1.276-0.675-1.659
				c-5.109-3.885-6.975-10.183-10.72-15.134c-0.159,0.391-0.318,0.782-0.477,1.172c0.328,0.044,0.656,0.089,0.983,0.133
				C112.426,71.531,112.729,71.301,112.57,71.05L112.57,71.05z"/>
		</g>
	</g>
	<g>
		<g>
			<path fill="#333333" d="M107.21,116.065c-0.131,0.139-0.752-0.746-0.752,0.337c0,0.558,0.408,1.194,0.625,1.689
				c0.764,1.733,1.68,3.409,2.579,5.075c1.577,2.922,3.056,6.364,5.305,8.849c1.268,1.401,3.218-0.633,2.046-2.046
				c-2.374-2.862-4-6.494-5.894-9.675c-0.201-0.337-3.666-6.444-4.405-4.518C106.605,116.06,107.015,116.271,107.21,116.065
				L107.21,116.065z"/>
		</g>
	</g>
	<g>
		<g>
			<path fill="#333333" d="M122.443,87.855c-0.138-2.304,1.706-1.639,3.854-1.788c2.323-0.162,4.661-0.074,6.983,0.047
				c5.025,0.262,10.016,1.172,15.054,1.17c1.849-0.001,1.837-2.797,0-2.859c-8.587-0.29-19.007-3.199-27.095,0.697
				c-0.351,0.169-0.469,0.608-0.39,0.958c0.213,0.945,0.648,1.206,1.408,1.852C122.323,87.989,122.449,87.958,122.443,87.855
				L122.443,87.855z"/>
		</g>
	</g>
	<g>
		<g>
			<path fill="#333333" d="M121.667,141.582c-0.383,0.021-0.659,0.014-1.006,0.136c0.29,0.499,0.58,0.997,0.871,1.496
				c1.108-1.21,1.151-1.999,1.422-3.587c0.429-2.512,1.352-4.954,1.933-7.434c-0.705,0.186-1.41,0.373-2.115,0.559
				c3.675,3.701,8.111,6.517,11.812,10.188c0.738,0.732,1.853,0.5,2.405-0.31c2.577-3.777,0.658-8.258,1.901-12.359
				c0.604-1.994-2.433-2.792-3.092-0.852c-1.271,3.742,0.789,8.273-1.454,11.665c0.802-0.104,1.604-0.207,2.405-0.31
				c-3.819-3.572-8.344-6.271-12.188-9.812c-0.656-0.604-1.914-0.42-2.115,0.559c-0.743,3.613-1.813,7.225-2.411,10.824
				c-0.162,0.971,1.075,1.598,1.635,0.689c0.249-0.404,0.237-0.688,0.269-1.177C121.95,141.712,121.809,141.574,121.667,141.582
				L121.667,141.582z"/>
		</g>
	</g>
	<g>
		<g>
			<path fill="#333333" d="M148.681,87.206c2.086,3.117,5.544,5.707,8.144,8.4c1.645,1.705,3.267,3.434,4.805,5.236
				c0.779,0.914,1.766,3.174,3.088,3.37c0.5,0.074,0.912-0.049,1.2-0.488c1.56-2.38-4.73-7.596-6.091-8.977
				c-2.801-2.842-6.406-7.254-10.234-8.726C148.933,85.769,148.305,86.644,148.681,87.206L148.681,87.206z"/>
		</g>
	</g>
	<g>
		<g>
			<path fill="#333333" d="M140.944,87.651c-2.415,0.539,4.797,8.604,5.32,9.205c3.83,4.402,7.976,9.373,12.713,12.846
				c1.417,1.039,2.813-1.346,1.38-2.361c-3.721-2.637-6.946-6.462-10.123-9.702c-2.018-2.057-3.979-4.159-5.944-6.265
				c-0.833-0.893-2.677-2.427-3.086-3.576C141.163,87.687,141.063,87.625,140.944,87.651L140.944,87.651z"/>
		</g>
	</g>
	<g>
		<g>
			<path fill="#CF5044" d="M166.947,122.214c2.126-2.824,1.828-7.004,2.009-10.359c-0.544,0.415-1.088,0.829-1.632,1.244
				c4.06,1.68,6.066,5.925,10.604,6.893c0.957,0.204,1.936-0.435,1.93-1.47c-0.012-2.167-0.149-4.334-0.216-6.5
				c-0.053-1.706,0.447-4.004-0.045-5.625c-0.287-0.944-1.628-1.453-2.345-0.619c-1.193,1.388-0.798,3.794-0.752,5.5
				c0.065,2.416,0.271,4.827,0.31,7.243c0.643-0.49,1.287-0.98,1.93-1.47c-4.309-0.787-6.697-4.953-10.729-6.44
				c-0.769-0.284-1.674,0.451-1.632,1.244c0.175,3.375-0.132,6.491-0.729,9.811C165.5,122.486,166.461,122.86,166.947,122.214
				L166.947,122.214z"/>
		</g>
	</g>
	<g>
		<g>
			<path fill="#333333" d="M145.297,144.695c0.948-1.751,8.105,0.21,9.536,0.47c3.066,0.559,6.118,1.238,9.139,2.004
				c0.741,0.188,1.449-0.234,1.677-0.952c1.946-6.127,2.805-12.518,4.716-18.653c0.543-1.746-2.187-2.487-2.728-0.752
				c-1.911,6.139-2.741,12.534-4.617,18.681c0.559-0.317,1.118-0.635,1.677-0.952c-2.375-0.574-20.599-5.278-20.04-0.019
				C144.69,144.836,145.12,145.022,145.297,144.695L145.297,144.695z"/>
		</g>
	</g>
	<g>
		<g>
			<path fill="#333333" d="M146.333,139.139c3.84,0.464,7.671,0.719,11.503,1.327c2.114,0.335,5.018,1.35,6.899,0.078
				c0.53-0.358,0.49-1.011,0-1.376c-1.897-1.415-5.425-1.027-7.724-1.299c-3.545-0.419-7.364-0.972-10.843,0.058
				C145.458,138.137,145.671,139.059,146.333,139.139L146.333,139.139z"/>
		</g>
	</g>
	<g>
		<g>
			<path fill="#333333" d="M150.479,86.771c1.37-0.797,2.685-2.463,3.75-3.611c2.36-2.543,4.681-5.124,7.029-7.678
				c1.88-2.044,3.81-4.308,6.073-5.943c1.042-0.753,2.071-0.831,1.34-2.391c-1.671-3.567-8.563,5.409-9.387,6.361
				c-2.193,2.537-4.304,5.171-6.256,7.899c-0.962,1.344-2.688,3.347-2.975,5.037C150.014,86.685,150.243,86.909,150.479,86.771
				L150.479,86.771z"/>
		</g>
	</g>
	<g>
		<g>
			<path fill="#333333" d="M176.42,64.003c1.393-0.618,1.526-3.763,1.793-5.024c0.583-2.749,1.175-5.644,1.325-8.458
				c-0.789,0.107-1.578,0.213-2.367,0.32c0.988,6.654,7.395,10.49,13.035,13.038c0.975,0.441,1.937,0.081,2.311-0.94
				c1.008-2.747,0.775-5.649,0.557-8.514c-0.12-1.575-0.219-3.136-0.177-4.715c0.039-1.451,0.846-2.696,0.355-4.109
				c-0.178-0.512-0.638-0.781-1.172-0.666c-2.422,0.521-2.415,3.667-2.463,5.674c-0.093,3.837,1.168,7.753-0.134,11.493
				c0.771-0.313,1.541-0.626,2.311-0.94c-4.926-2.092-11.208-5.165-12.298-10.962c-0.258-1.373-2.348-1-2.367,0.32
				c-0.041,2.739-0.627,5.469-0.962,8.181c-0.157,1.274-1.051,4.237,0.045,5.274C176.273,64.034,176.347,64.036,176.42,64.003
				L176.42,64.003z"/>
		</g>
	</g>
	<g>
		<g>
			<path fill="#333333" d="M169.844,28.218c-0.534-0.243-0.856-0.379-1.399-0.114c-0.222,0.108-0.426,0.433-0.393,0.685
				c0.102,0.781,0.449,1.402,0.832,2.091c0.596,1.074,0.944,2.259,1.548,3.338c1.239,2.213,3.028,4.272,4.89,5.981
				c1.36,1.249,3.268-0.661,2.021-2.021c-1.597-1.745-3.318-3.311-4.673-5.269c-1.152-1.664-1.938-3.415-3.426-4.835
				c-0.071,0.269-0.142,0.538-0.213,0.806c0.211-0.002,0.423-0.004,0.634-0.007C170.006,28.896,170.162,28.363,169.844,28.218
				L169.844,28.218z"/>
		</g>
	</g>
	<g>
		<g>
			<path fill="#333333" d="M152.132,10.866c-0.34-0.193-0.063,1.069-0.021,1.373c0.163,1.159,0.391,2.313,0.58,3.468
				c0.347,2.127,0.514,4.4,1.183,6.458c0.387,1.19,2.447,1.055,2.292-0.31c-0.084-0.736-0.377-0.938-0.789-1.554
				c-0.188-0.281-0.568-0.281-0.756,0c-0.411,0.617-0.705,0.818-0.789,1.554c0.764-0.104,1.527-0.207,2.292-0.31
				c-0.703-2.401-1.138-4.884-1.699-7.32c-0.276-1.199-0.536-3.679-1.986-4.087C152.004,10.015,151.737,10.642,152.132,10.866
				L152.132,10.866z"/>
		</g>
	</g>
	<g>
		<g>
			<path fill="#333333" d="M154.333,16.85c0.072,0,0.144,0,0.216-0.001c-0.227,0.002,0.126,0.13,0.243,0.163
				c0.53,0.146,1.125,0.035,1.66-0.027c1.376-0.16,2.781-0.374,3.991-1.095c1.279-0.763,0.117-2.762-1.167-1.997
				c-1.032,0.616-2.161,1.074-3.295,1.466c-0.462,0.16-0.901,0.309-1.335,0.532c-0.406,0.209-0.08,0.219-0.4,0.315
				C153.893,16.311,153.958,16.849,154.333,16.85L154.333,16.85z"/>
		</g>
	</g>
	<g>
		<g>
			<path fill="#333333" d="M159.509,6.251c-1.42,0.759-0.064,6.616,0.118,7.879c0.136,0.942,1.38,8.221,3.798,5.802
				c0.745-0.745-0.02-1.521-0.43-2.185c-0.912-1.475-1.214-3.497-1.589-5.161C161.275,12.001,160.423,5.763,159.509,6.251
				L159.509,6.251z"/>
		</g>
	</g>
	<g>
		<g>
			<path fill="#333333" d="M202.744,54.671c0.594,0.998,2.879,0.446,3.775,0.362c2.16-0.203,4.312-0.47,6.481-0.549
				c1.666-0.061,1.678-2.597,0-2.594C211.913,51.894,202.106,53.6,202.744,54.671L202.744,54.671z"/>
		</g>
	</g>
	<g>
		<g>
			<path fill="#CF5044" d="M221.949,44.24c-0.159-0.186-0.211-0.257-0.413-0.359c-0.208-0.105-0.392-0.065-0.569,0.073
				c-1.318,1.036,0.327,5.576,0.528,7.432c0.096,0.882,0.54,9.541,3.331,6.961c0.172-0.159,0.254-0.452,0.179-0.677
				c-0.784-2.323-0.804-5.186-1.232-7.629c-0.223-1.274-0.626-2.513-1.065-3.729c-0.206-0.569-0.491-1.108-0.694-1.681
				c-0.354-0.995-0.973-0.022-0.546,0.234C221.873,45.11,222.232,44.571,221.949,44.24L221.949,44.24z"/>
		</g>
	</g>
	<g>
		<g>
			<path fill="#CF5044" d="M223.667,51.532c0.043,0.002,0.39,0.313,0.795,0.367c0.702,0.093,1.389,0.104,2.096,0.11
				c0.795,0.007,1.579-0.128,2.341-0.348c0.843-0.244,1.185-0.756,1.476-1.447c0.212-0.502-0.322-1.163-0.847-1.112
				c-1.199,0.117-2.319,0.59-3.498,0.937c-0.576,0.17-1.179,0.278-1.764,0.419c-0.364,0.087-0.531,0.383-0.6,0.387
				C223.225,50.868,223.223,51.511,223.667,51.532L223.667,51.532z"/>
		</g>
	</g>
	<g>
		<g>
			<path fill="#CF5044" d="M231.236,41.05c-0.098-0.342-0.195-0.685-0.292-1.026c0.149-0.81-1.112-1.129-1.221-0.337
				c-0.87,6.375-1.625,15.27,2.977,20.468c1.171,1.323,3.098-0.619,1.934-1.934c-4.278-4.832-2.915-12.438-3.667-18.366
				c-0.393,0.106-0.786,0.213-1.179,0.319c0.375,0.816,0.212,0.559,1.02,1.207C231.036,41.565,231.407,41.334,231.236,41.05
				L231.236,41.05z"/>
		</g>
	</g>
	<g>
		<g>
			<path fill="#333333" d="M30.128,136.837c-0.662,0.331-1.324,0.661-1.986,0.992c0.271,0.351,0.541,0.703,0.811,1.054
				c0.383-0.67,1.172-0.441,1.986-0.859c2.036-1.045,3.854-2.309,5.672-3.692c3.626-2.759,6.949-5.352,11.15-7.176
				c1.613-0.7,0.438-3.162-1.162-2.756c-7.119,1.809-12.694,8.768-18.77,12.592c-0.356,0.225-0.614,0.702-0.458,1.127
				c0.101,0.275,0.198,0.51,0.343,0.764c0.225,0.393,0.811,0.481,1.127,0.145c0.566-0.497,1.132-0.993,1.698-1.49
				C30.957,137.24,30.582,136.557,30.128,136.837L30.128,136.837z"/>
		</g>
	</g>
	<g>
		<g>
			<path fill="#644172" d="M7.26,128.115c0.763-0.908,3.742-1.087,4.809-1.351c2.925-0.723,6.108-1.253,9.115-0.79
				c8.713,1.342-3.273,10.218-1.16,13.827c1.25,2.135,4.854,1.484,6.796,1.367c1.573-0.095,3.139-0.65,4.66-1.025
				c4.237-1.043,5.083,3.971,4.648,7.092c-0.381,2.737-1.464,5.276-0.691,8.045c0.838,3.005,4.545,4.078,7.146,4.755
				c1.962,0.511,2.796-2.53,0.835-3.028c-6.305-1.604-4.901-4.302-4.31-9.369c0.364-3.113-0.113-7.19-2.827-9.251
				c-3.326-2.526-6.941-0.172-10.614,0.085c-3.944,0.276-2.661-0.882-1.045-3.257c1.039-1.527,1.745-2.988,2.047-4.806
				c0.925-5.562-4.385-7.017-8.785-6.618c-2.42,0.219-9.9,1.23-11.2,3.877C6.509,128.023,6.976,128.452,7.26,128.115L7.26,128.115z"
				/>
		</g>
	</g>
	<g>
		<g>
			<path fill="#333333" d="M333.224,334.635c0.564-4.026,0.932-8.137,1.075-12.199c-0.567,0.325-1.134,0.65-1.702,0.977
				c5.506,2.384,9.384,7.227,14.574,10.158c0.915,0.517,1.906-0.151,1.978-1.135c0.482-6.521-2.372-12.425-4.647-18.367
				c-0.632-1.649-3.31-0.93-2.667,0.734c2.2,5.695,5.031,11.375,4.686,17.633c0.659-0.378,1.319-0.757,1.978-1.135
				c-5.399-2.789-9.357-7.627-15.029-9.955c-0.696-0.286-1.43,0.423-1.432,1.09c-0.012,3.991-0.69,8.024-0.286,12
				C331.829,335.207,333.098,335.536,333.224,334.635L333.224,334.635z"/>
		</g>
	</g>
	<g>
		<g>
			<path fill="#333333" d="M342.663,303.33c0.92-5.642-0.86-11.083-1.856-16.602c-0.808-4.475,1.735-4.251,5.191-6.067
				c3.095-1.626,6.082-3.446,9.185-5.059c1.548-0.805,0.182-3.13-1.364-2.334c-5.032,2.591-9.74,5.781-14.989,7.939
				c-0.515,0.212-0.961,0.614-0.934,1.228c0.301,6.989,2.661,13.656,3.08,20.666C341.029,304.017,342.499,304.336,342.663,303.33
				L342.663,303.33z"/>
		</g>
	</g>
	<g>
		<g>
			<path fill="#333333" d="M340.279,290.656c1.299,1.478,6.712-1.771,7.926-2.355c2.282-1.098,4.537-2.261,6.714-3.554
				c1.19-0.707,2.975-1.411,2.943-2.979c-0.008-0.407-0.312-0.658-0.695-0.695c-1.182-0.114-1.959,0.738-2.929,1.363
				c-1.681,1.083-3.422,2.084-5.159,3.075c-1.776,1.013-3.583,1.977-5.39,2.933c-0.741,0.392-2.345,1.653-3.189,1.68
				C340.218,290.132,340.1,290.452,340.279,290.656L340.279,290.656z"/>
		</g>
	</g>
	<g>
		<g>
			<path fill="#333333" d="M367.717,281.919c1.033-3.304,1.201-6.715,1.389-10.151c-0.639,0.365-1.275,0.731-1.912,1.097
				c4.555,2.86,6.779,8.829,13.068,7.784c0.686-0.114,1.186-0.891,1.178-1.547c-0.057-3.976-2.463-8.664-1.498-12.528
				c0.525-2.103-2.645-2.977-3.238-0.893c-1.211,4.25,1.313,9.145,1.527,13.421c0.393-0.516,0.785-1.031,1.178-1.547
				c-4.533,0.923-7.295-5.068-10.934-6.884c-0.809-0.403-1.965,0.073-1.91,1.097c0.176,3.347,0.188,6.652,0.033,10
				C366.566,282.431,367.531,282.517,367.717,281.919L367.717,281.919z"/>
		</g>
	</g>
	<g>
		<g>
			<path fill="#333333" d="M386.07,283.63c-0.51-0.801-0.422-0.765-1.168-1.218c-0.561-0.341-1.43,0.229-1.172,0.901
				c1.693,4.417,3.928,8.745,6.588,12.652c0.719,1.057,3.318,3.06,2.867,4.312c-1.283,3.555-3.225,6.896-5.078,10.174
				c-2.844,5.025-5.732,9.962-7.885,15.334c-0.85,2.121-5.951,2.3-7.891,2.632c-2.953,0.507-5.947,0.73-8.904,1.21
				c-2.14,0.346-0.806,4.043,1.18,2.796c0.256-0.163,0.525-0.3,0.811-0.41c0.898-0.342,0.898-1.48,0-1.822
				c-0.285-0.11-0.555-0.247-0.811-0.41c-0.258,0.95-0.516,1.9-0.773,2.851c4.143-0.34,8.293-0.933,12.367-1.745
				c3.424-0.682,5.854-0.958,7.027-4.271c3.377-9.527,9.992-17.543,13.355-27.122c0.236-0.671-0.172-1.276-0.676-1.659
				c-5.107-3.886-6.975-10.184-10.719-15.134c-0.158,0.391-0.318,0.781-0.477,1.172c0.328,0.044,0.656,0.089,0.984,0.133
				C385.928,284.11,386.23,283.881,386.07,283.63L386.07,283.63z"/>
		</g>
	</g>
	<g>
		<g>
			<path fill="#333333" d="M380.711,328.646c-0.131,0.139-0.754-0.746-0.754,0.337c0,0.557,0.408,1.194,0.627,1.688
				c0.764,1.733,1.68,3.409,2.578,5.075c1.576,2.922,3.057,6.363,5.305,8.849c1.268,1.4,3.219-0.634,2.047-2.046
				c-2.375-2.862-4.002-6.494-5.895-9.676c-0.199-0.335-3.668-6.443-4.404-4.517C380.105,328.64,380.516,328.853,380.711,328.646
				L380.711,328.646z"/>
		</g>
	</g>
	<g>
		<g>
			<path fill="#333333" d="M395.943,300.436c-0.137-2.305,1.705-1.639,3.854-1.788c2.324-0.161,4.66-0.074,6.982,0.048
				c5.025,0.262,10.016,1.172,15.055,1.17c1.85-0.001,1.838-2.797,0-2.859c-8.586-0.29-19.008-3.2-27.096,0.697
				c-0.35,0.168-0.469,0.607-0.389,0.958c0.213,0.944,0.648,1.206,1.408,1.852C395.824,300.569,395.949,300.539,395.943,300.436
				L395.943,300.436z"/>
		</g>
	</g>
	<g>
		<g>
			<path fill="#333333" d="M395.168,354.162c-0.385,0.021-0.658,0.013-1.006,0.136c0.289,0.498,0.58,0.996,0.869,1.495
				c1.109-1.21,1.152-2,1.424-3.588c0.43-2.512,1.352-4.953,1.934-7.433c-0.705,0.186-1.41,0.372-2.115,0.558
				c3.674,3.7,8.109,6.517,11.811,10.188c0.738,0.731,1.854,0.5,2.406-0.31c2.576-3.778,0.658-8.26,1.9-12.36
				c0.604-1.993-2.432-2.792-3.092-0.853c-1.271,3.743,0.789,8.274-1.453,11.666c0.801-0.103,1.604-0.206,2.404-0.31
				c-3.818-3.572-8.344-6.271-12.188-9.812c-0.656-0.604-1.914-0.421-2.115,0.558c-0.742,3.612-1.816,7.225-2.41,10.823
				c-0.16,0.971,1.072,1.598,1.635,0.689c0.25-0.403,0.238-0.688,0.27-1.176C395.449,354.292,395.309,354.154,395.168,354.162
				L395.168,354.162z"/>
		</g>
	</g>
	<g>
		<g>
			<path fill="#333333" d="M422.182,299.786c2.086,3.117,5.545,5.707,8.143,8.4c1.646,1.704,3.268,3.434,4.807,5.235
				c0.779,0.914,1.764,3.175,3.088,3.37c0.5,0.074,0.912-0.049,1.199-0.488c1.561-2.38-4.73-7.596-6.092-8.976
				c-2.801-2.843-6.406-7.255-10.234-8.727C422.434,298.349,421.805,299.224,422.182,299.786L422.182,299.786z"/>
		</g>
	</g>
	<g>
		<g>
			<path fill="#333333" d="M440.449,334.794c2.125-2.824,1.826-7.004,2.008-10.358c-0.545,0.414-1.088,0.829-1.633,1.244
				c4.061,1.679,6.066,5.925,10.605,6.892c0.955,0.204,1.936-0.434,1.93-1.47c-0.014-2.167-0.15-4.334-0.217-6.5
				c-0.053-1.706,0.445-4.003-0.045-5.624c-0.287-0.944-1.629-1.453-2.346-0.619c-1.193,1.389-0.797,3.793-0.752,5.5
				c0.064,2.416,0.271,4.827,0.311,7.243c0.643-0.49,1.285-0.98,1.93-1.47c-4.309-0.787-6.697-4.954-10.73-6.44
				c-0.77-0.283-1.674,0.451-1.633,1.244c0.176,3.375-0.131,6.49-0.729,9.811C439.002,335.066,439.963,335.44,440.449,334.794
				L440.449,334.794z"/>
		</g>
	</g>
	<g>
		<g>
			<path fill="#333333" d="M418.797,357.275c0.949-1.752,8.105,0.209,9.537,0.47c3.066,0.559,6.117,1.237,9.139,2.005
				c0.74,0.188,1.447-0.234,1.676-0.952c1.947-6.128,2.805-12.519,4.715-18.654c0.545-1.746-2.186-2.487-2.727-0.752
				c-1.912,6.139-2.74,12.534-4.617,18.682c0.559-0.317,1.119-0.635,1.678-0.952c-2.375-0.574-20.6-5.279-20.041-0.02
				C418.189,357.416,418.619,357.603,418.797,357.275L418.797,357.275z"/>
		</g>
	</g>
	<g>
		<g>
			<path fill="#333333" d="M419.834,351.719c3.842,0.464,7.672,0.72,11.504,1.327c2.113,0.335,5.018,1.35,6.898,0.078
				c0.531-0.358,0.49-1.012,0-1.377c-1.896-1.414-5.424-1.027-7.723-1.299c-3.547-0.419-7.365-0.972-10.844,0.059
				C418.959,350.717,419.172,351.639,419.834,351.719L419.834,351.719z"/>
		</g>
	</g>
	<g>
		<g>
			<path fill="#333333" d="M423.98,299.352c1.369-0.798,2.684-2.463,3.75-3.611c2.361-2.544,4.682-5.124,7.029-7.679
				c1.881-2.044,3.811-4.308,6.074-5.943c1.041-0.753,2.07-0.83,1.34-2.39c-1.672-3.567-8.564,5.408-9.387,6.36
				c-2.193,2.537-4.305,5.171-6.256,7.898c-0.963,1.345-2.689,3.348-2.975,5.037C423.516,299.265,423.744,299.489,423.98,299.352
				L423.98,299.352z"/>
		</g>
	</g>
	<g>
		<g>
			<path fill="#333333" d="M303.629,349.417c-0.662,0.331-1.324,0.661-1.986,0.992c0.271,0.352,0.541,0.703,0.811,1.055
				c0.383-0.67,1.173-0.441,1.986-0.858c2.036-1.046,3.854-2.309,5.672-3.692c3.626-2.759,6.949-5.352,11.15-7.176
				c1.613-0.7,0.438-3.162-1.162-2.756c-7.119,1.81-12.695,8.768-18.769,12.593c-0.356,0.224-0.615,0.701-0.459,1.127
				c0.101,0.274,0.198,0.51,0.343,0.763c0.225,0.394,0.811,0.481,1.127,0.146c0.565-0.497,1.131-0.994,1.697-1.491
				C304.457,349.819,304.082,349.136,303.629,349.417L303.629,349.417z"/>
		</g>
	</g>
	<g>
		<g>
			<path fill="#644172" d="M280.76,340.695c0.763-0.908,3.743-1.088,4.809-1.352c2.925-0.723,6.108-1.253,9.115-0.79
				c8.713,1.342-3.273,10.218-1.16,13.827c1.25,2.135,4.854,1.484,6.796,1.367c1.573-0.096,3.139-0.65,4.66-1.024
				c4.237-1.044,5.083,3.97,4.648,7.092c-0.381,2.737-1.464,5.275-0.691,8.045c0.838,3.005,4.545,4.078,7.146,4.756
				c1.962,0.511,2.796-2.53,0.835-3.029c-6.305-1.604-4.901-4.301-4.31-9.368c0.364-3.112-0.114-7.189-2.827-9.25
				c-3.326-2.526-6.941-0.173-10.614,0.085c-3.944,0.276-2.661-0.883-1.045-3.257c1.039-1.527,1.745-2.988,2.047-4.806
				c0.925-5.562-4.385-7.018-8.785-6.619c-2.419,0.219-9.902,1.231-11.2,3.878C280.01,340.604,280.477,341.033,280.76,340.695
				L280.76,340.695z"/>
		</g>
	</g>
	<g>
		<g>
			<path fill="#333333" d="M101.026,110.17c1.051-7.917,7.574-14.876,10.18-22.35c0.163-0.466-0.021-1.056-0.368-1.39
				c-2.419-2.337-5.888,8.358-6.652,9.891c-1.651,3.312-6.236,10.271-3.829,14.03C100.564,110.676,100.98,110.512,101.026,110.17
				L101.026,110.17z"/>
		</g>
	</g>
	<g>
		<g>
			<path fill="#333333" d="M389.113,328.613c-0.146-0.939,1.377-2.897,1.81-3.66c1.31-2.305,2.624-4.604,3.973-6.888
				c2.269-3.843,4.568-7.688,7.14-11.339c1.045-1.484-1.348-2.809-2.402-1.404c-3.213,4.282-5.748,9.286-8.228,14.011
				c-0.774,1.475-4.689,7.917-2.776,9.562C388.859,329.093,389.157,328.899,389.113,328.613L389.113,328.613z"/>
		</g>
	</g>
	<g>
		<g>
			<path fill="#333333" d="M429.012,304.328c3.48-1.876,4.996-5.986,7.766-8.645c3.242-3.114,6.75-5.939,9.74-9.31
				c1.23-1.388-0.84-3.441-2.033-2.033c-2.914,3.436-6.373,6.319-9.502,9.548c-2.702,2.789-4.834,6.436-6.452,9.958
				C428.387,304.16,428.684,304.505,429.012,304.328L429.012,304.328z"/>
		</g>
	</g>
	<g>
		<g>
			<path fill="#CF5044" d="M457.727,267.357c0.089-1.676-1.202-2.42-2.729-2.084c-2.247,0.495-3.989,3.483-4.915,5.335
				c-2.605,5.213-1.525,10.879,4.768,12.158c5.291,1.076,12.442-2.103,12.783-8.065c0.347-6.087-9.502-10.016-13.942-6.827
				c-0.882,0.633-0.347,1.925,0.729,1.728c3.489-0.639,8.821,0.573,10.208,4.237c1.497,3.96-4.789,6.208-7.553,6.398
				c-4.07,0.279-6.644-2.292-5.737-6.282c0.496-2.184,3.074-8.791,6.003-6.438C457.494,267.641,457.716,267.567,457.727,267.357
				L457.727,267.357z"/>
		</g>
	</g>
	<g>
		<g>
			<path fill="#333333" d="M436.777,359.154c-0.055,0.011-0.109,0.027-0.162,0.048c-0.24,0.08-0.48,0.267-0.531,0.53
				c-0.624,3.276-0.852,6.647-0.997,9.975c-0.118,2.705-0.446,6.668,1.166,9.047c1.036,1.528,3.421,0.183,2.496-1.459
				c-1.325-2.354-0.998-5.825-1.054-8.432c-0.063-2.968,0.143-5.97-0.119-8.929c-0.021-0.248-0.125-0.545-0.377-0.655
				C437.078,359.226,436.92,359.12,436.777,359.154L436.777,359.154z"/>
		</g>
	</g>
	<g>
		<g>
			<path fill="#333333" d="M439.986,398.38c0.043,0.036,0.086,0.072,0.13,0.108c-0.03,0.231-0.06,0.463-0.089,0.694
				c1.031-0.685,0.996-2.579,1.223-3.703c0.318-1.583,0.748-3.173,0.861-4.789c-0.793,0.215-1.587,0.43-2.38,0.645
				c2.886,3.764,6.214,7.065,10.708,8.789c0.916,0.352,1.885-0.538,1.883-1.434c-0.01-2.392-0.346-4.78-0.568-7.158
				c-0.109-1.179-0.191-2.359-0.213-3.543c-0.008-0.438,0.078-0.914-0.041-1.344c-0.064-0.235-0.648-1.154-0.594-0.824
				c-0.09-0.542-0.936-0.769-1.279-0.338c-0.014,0.025-0.025,0.051-0.039,0.076c-0.686,0.26-1.1,0.751-1.141,1.499
				c-0.217,3.878,0.791,7.758,0.9,11.632c0.627-0.479,1.254-0.956,1.883-1.434c-3.939-1.386-6.83-4.378-9.494-7.469
				c-0.751-0.873-2.174-0.148-2.18,0.902c-0.014,2.533-0.91,4.981-0.831,7.522c0.013,0.438,0.29,0.833,0.723,0.949
				c0.431,0.117,0.666,0.15,0.974-0.218C440.68,398.636,440.36,398.182,439.986,398.38L439.986,398.38z"/>
		</g>
	</g>
	<g>
		<g>
			<path fill="#333333" d="M460.834,392.394c-0.525-0.143-1.051-0.284-1.576-0.427c-0.141,0.521-0.283,1.041-0.424,1.562
				c2.055-0.123,4.094-0.386,6.145-0.544c1.74-0.134,3.787,0.227,5.129-1.02c0.328-0.305,0.342-0.912,0-1.215
				c-1.355-1.201-3.078-0.742-4.773-0.514c-2.301,0.312-4.529,0.886-6.723,1.646c-1.209,0.42-0.311,2.193,0.646,1.531
				c0.525-0.143,1.051-0.284,1.576-0.427C461.217,392.954,461.217,392.427,460.834,392.394L460.834,392.394z"/>
		</g>
	</g>
	<g>
		<g>
			<path fill="#CF5044" d="M477.512,384.024c0.091,1.82,0.236,3.644,0.446,5.454c0.171,1.471,1.063,3.334,1.021,4.746
				c-0.037,1.281-0.271,2.999,0.607,4.044c0.825,0.98,2.13-0.103,1.946-1.134c-0.026-0.204-0.081-0.401-0.164-0.592
				c-0.137-0.418-0.603-0.517-0.927-0.245c0.093,0.008,0.185,0.016,0.278,0.023c0.285,0.375,0.569,0.749,0.854,1.123
				c0.022-0.995,0.102-2.81-0.268-3.734c-1.276-3.195-1.456-6.611-2.507-9.86C478.58,383.169,477.473,383.257,477.512,384.024
				L477.512,384.024z"/>
		</g>
	</g>
	<g>
		<g>
			<path fill="#CF5044" d="M479.5,392.485c2.699,0.037,5.671-0.537,8.047-1.856c0.337-0.187,0.562-0.58,0.554-0.965
				c-0.045-2.164-2.871-0.385-3.823,0.006c-0.934,0.384-1.889,0.714-2.813,1.117c-0.569,0.248-1.337,0.692-1.964,0.776
				C478.931,391.64,478.887,392.477,479.5,392.485L479.5,392.485z"/>
		</g>
	</g>
	<g>
		<g>
			<path fill="#CF5044" d="M487.891,381.748c-2.193,1.863-1.666,6.436-1.39,8.916c0.293,2.629,1.067,7.472,4.034,8.445
				c1.037,0.34,1.635-0.828,1.271-1.652c-0.394-0.893-1.11-1.602-1.603-2.454c-0.807-1.397-1.244-3.063-1.614-4.622
				c-0.69-2.906-0.298-5.47-0.03-8.356C488.592,381.653,488.123,381.551,487.891,381.748L487.891,381.748z"/>
		</g>
	</g>
	<g>
		<g>
			<path fill="#333333" d="M437.413,404.741c-0.001-0.002-0.833,1.358-0.882,1.45c-0.58,1.083-1.292,2.096-1.976,3.114
				c-1.362,2.029-2.97,3.932-4.134,6.088c-0.77,1.422,1.429,2.693,2.158,1.262c1.029-2.019,2.395-3.879,3.592-5.8
				c0.949-1.522,2.354-3.517,2.183-5.404c-0.029-0.324-0.19-0.536-0.495-0.649c-0.096-0.062-0.191-0.122-0.287-0.184
				C437.494,404.531,437.355,404.644,437.413,404.741L437.413,404.741z"/>
		</g>
	</g>
	<g>
		<g>
			<path fill="#333333" d="M415.623,422.246c-4.565-0.83-2.49,12.487-1.918,14.756c0.125,0.497,0.618,0.869,1.129,0.859
				c0.338-0.006,0.627-0.043,0.955-0.125c0.537-0.133,0.96-0.789,0.758-1.334c-0.223-0.605-0.448-1.21-0.677-1.813
				c-0.137-0.363-0.602-0.363-0.738,0c-0.229,0.604-0.454,1.208-0.677,1.813c0.445-0.253,0.89-0.506,1.334-0.758
				c-0.328-0.082-0.617-0.119-0.955-0.125c0.377,0.286,0.753,0.573,1.129,0.859c-0.26-1.218-2.023-13.3-0.462-13.228
				C416.016,423.175,416.139,422.34,415.623,422.246L415.623,422.246z"/>
		</g>
	</g>
	<g>
		<g>
			<path fill="#333333" d="M415.191,429.843c-0.717,1.237,1.453,1.512,2.166,1.493c1.617-0.043,4.374-0.413,5.319-1.912
				c0.474-0.749-0.3-1.538-1.065-1.386c-1.043,0.207-2.069,0.966-3.082,1.327c-0.514,0.184-2.291,0.881-2.774,0.405
				C415.59,429.608,415.308,429.642,415.191,429.843L415.191,429.843z"/>
		</g>
	</g>
	<g>
		<g>
			<path fill="#333333" d="M423.225,420.024c-0.052-0.635-0.107-0.606-0.652-1.072c-0.403-0.344-0.918-0.097-0.977,0.405
				c-0.782,6.572,0.836,14.931,4.051,20.694c0.769,1.377,2.915,0.438,2.514-1.06c-0.027-0.545-0.055-1.09-0.081-1.635
				c0.053-0.418-0.538-0.746-0.87-0.499c-0.967,0.719-1.072,0.727-1.563,1.805c0.791,0,1.584,0,2.375,0
				c-3.691-6.131-3.155-12.93-5.302-19.458c-0.235,0.235-0.47,0.47-0.704,0.704c0.16,0.104,0.32,0.208,0.48,0.313
				C422.65,420.577,423.255,420.399,423.225,420.024L423.225,420.024z"/>
		</g>
	</g>
	<g>
		<g>
			<path fill="#333333" d="M461.863,324.471c0.225-0.705,3.584-0.96,4.389-1.051c2.289-0.259,4.582-0.28,6.873-0.47
				c1.584-0.131,1.617-2.415,0-2.487c-2.574-0.114-11.998,0.099-11.998,3.908C461.127,324.804,461.736,324.869,461.863,324.471
				L461.863,324.471z"/>
		</g>
	</g>
	<g>
		<g>
			<path fill="#CF5044" d="M485.758,314.441c0.115-0.351,0.23-0.701,0.346-1.053c-0.425-0.056-0.85-0.11-1.274-0.166
				c1.217,5.318-1.065,10.953,0.988,16.095c0.494,1.237,2.353,0.793,2.034-0.561c-1.242-5.284,0.389-10.815-1.678-15.905
				c-0.412-1.016-1.84-0.198-1.274,0.537c0.115,0.352,0.23,0.702,0.346,1.053C485.295,314.696,485.708,314.696,485.758,314.441
				L485.758,314.441z"/>
		</g>
	</g>
	<g>
		<g>
			<path fill="#CF5044" d="M485.839,323.901c0.794-1.762,2.624-2.187,4.396-2.381c1.249-0.138,3.251,0.347,4.22-0.566
				c0.318-0.3,0.322-0.866,0-1.166c-1.261-1.172-4.513-0.199-5.975,0.25c-1.729,0.531-3.217,1.795-3.369,3.666
				C485.08,324.081,485.68,324.253,485.839,323.901L485.839,323.901z"/>
		</g>
	</g>
	<g>
		<g>
			<path fill="#CF5044" d="M495.039,310.687c-0.363-0.255-0.727-0.509-1.09-0.763c-0.556-0.506-1.285,0.123-0.994,0.767
				c3.081,6.828,2.086,14.41,4.592,21.369c0.578,1.608,3.16,0.915,2.576-0.711c-2.522-7.009-1.918-14.882-6.074-21.297
				c-0.239,0.31-0.478,0.62-0.716,0.93c0.433,0.136,0.864,0.271,1.296,0.406C495.098,311.603,495.508,310.939,495.039,310.687
				L495.039,310.687z"/>
		</g>
	</g>
	<g>
		<g>
			<path fill="#333333" d="M293.039,111.383c1.316,1.663,2.887-1.391,3.258-2.281c1.074-2.572,1.396-5.815,1.477-8.589
				c-0.776,0.321-1.553,0.643-2.329,0.964c2.974,3.691,5.849,7.961,10.563,9.493c0.805,0.262,1.619-0.298,1.858-1.056
				c1.486-4.699,1.168-9.54,1.152-14.402c-0.007-2.075-3.242-2.076-3.219,0c0.053,4.581,0.401,9.13-0.848,13.598
				c0.619-0.352,1.239-0.704,1.858-1.056c-4.106-1.237-6.808-5.371-9.437-8.507c-0.797-0.949-2.318-0.145-2.329,0.964
				c-0.017,1.849-0.261,3.705-0.566,5.525c-0.232,1.381-0.422,3.538-1.439,4.605C292.825,110.867,292.858,111.155,293.039,111.383
				L293.039,111.383z"/>
		</g>
	</g>
	<g>
		<g>
			<path fill="#333333" d="M305.815,118.174c-2.066,0.52,4.285,15.499,4.124,17.839c-0.053,0.77,0.709,1.51,1.47,1.47
				c5.343-0.282,9.689-3.628,14.904-4.199c2.331-0.255,7.869,0.398,9.175-2.14c0.435-0.844-0.099-1.86-1.079-1.881
				c-2.889-0.061-6.218,0.766-9.14,1.092c-4.856,0.543-8.909,3.761-13.86,4.188c0.49,0.49,0.979,0.98,1.47,1.47
				C312.955,133.872,308.17,117.581,305.815,118.174L305.815,118.174z"/>
		</g>
	</g>
	<g>
		<g>
			<path fill="#333333" d="M341.072,133.315c-0.146,0.213-0.37,0.433-0.348,0.716c0.038,0.482,0.484,0.733,0.919,0.527
				c2.79-1.324,2.872-5.937,3.002-8.546c-0.768,0.208-1.536,0.416-2.304,0.624c2.286,3.465,6.465,10.928,11.75,8.078
				c5.041-2.719,2.193-8.885,3.854-13.278c0.562-1.485-1.646-2.73-2.664-1.551c-2.265,2.622-0.9,7.156-1.496,10.322
				c-1.16,6.163-8.192-3.601-9.503-5.07c-0.737-0.828-2.104-0.156-2.11,0.875c-0.012,1.821-0.271,3.567-0.578,5.358
				c-0.061,0.354-1.101,2.346-0.467,2.089c0.233,0.178,0.467,0.356,0.7,0.534c-0.01-0.161-0.019-0.321-0.028-0.481
				C341.776,133.115,341.294,132.993,341.072,133.315L341.072,133.315z"/>
		</g>
	</g>
	<g>
		<g>
			<path fill="#333333" d="M313.478,92.22c0.555-1.179,1.594-2.224,1.926-3.498c0.716-2.747,0.707-5.526,1.043-8.334
				c-0.348,0.349-0.696,0.697-1.045,1.045c5.591-0.608,10.819-2.671,16.36-3.439c3.063-0.424,6.09-0.856,9.087-1.634
				c3.194-0.83,4.048,3.534,5.363,6.034c2.836,5.388,5.682,10.957,9.855,15.425c4.097,4.385-4.171,10.042-4.832,15.05
				c-0.189,1.435,2.329,1.773,2.528,0.342c0.808-5.806,9.509-9.673,5.253-15.858c-2.395-3.478-5.118-6.51-7.277-10.206
				c-2.601-4.452-4.935-9.06-7.44-13.564c-0.242-0.436-0.89-0.765-1.382-0.563c-4.244,1.743-8.749,2.264-13.256,2.925
				c-4.927,0.723-9.566,2.764-14.538,3.435c-0.475,0.064-0.737,0.589-0.767,1.008c-0.188,2.651-0.083,5.268-0.504,7.906
				c-0.194,1.216-0.938,2.36-1.214,3.572C312.527,92.352,313.247,92.71,313.478,92.22L313.478,92.22z"/>
		</g>
	</g>
	<g>
		<g>
			<path fill="#333333" d="M309.409,134.271c-2.261,0.185-4.241,2.173-5.792,3.666c-2.083,2.004-3.831,4.397-5.638,6.647
				c-0.755,0.939-0.094,2.64,1.279,2.198c1.118-0.361,1.648-0.907,2.177-1.96c0.203-0.405-0.042-0.917-0.526-0.917
				c-0.715,0-1.298,0.312-2,0.294c0.31,0.749,0.62,1.497,0.93,2.245c1.604-1.908,3.012-3.973,4.617-5.883
				c1.673-1.991,3.538-3.357,5.478-5.022C310.412,135.127,310.041,134.219,309.409,134.271L309.409,134.271z"/>
		</g>
	</g>
	<g>
		<g>
			<path fill="#333333" d="M312.876,136.701c-1.39,2.389-3.114,4.022-5.266,5.75c-1.393,1.118-4.953,2.975-4.771,5.062
				c0.049,0.561,0.45,1.098,1.07,1.07c1.201-0.053,1.827-0.962,2.661-1.729c1.228-1.127,2.524-2.175,3.742-3.313
				c1.754-1.638,4.149-4.065,3.691-6.692C313.909,136.303,313.127,136.271,312.876,136.701L312.876,136.701z"/>
		</g>
	</g>
	<g>
		<g>
			<path fill="#333333" d="M292.256,155.108c0.063-0.151,0.128-0.302,0.192-0.453c0.127-0.301,0.111-0.556-0.104-0.811
				c-1.538-1.815-4.742,1.588-5.57,2.753c-1.649,2.322-1.655,6.201,0.325,8.332c3.136,3.374,8.682,3.841,12.02,0.599
				c2.662-2.585,3.561-7.126,2.32-10.577c-1.529-4.256-6.281-5.301-9.587-2.497c-0.535,0.454-0.096,1.359,0.558,1.347
				c2.167-0.041,4.768-0.353,5.94,1.835c0.992,1.851,0.515,4.456-0.362,6.243c-1.108,2.259-3.228,3.325-5.688,2.767
				c-2.204-0.5-3.9-1.811-3.949-4.196c-0.044-2.145,1.788-4.711,3.741-5.505c-0.167-0.127-0.335-0.255-0.502-0.382
				c-0.014,0.15-0.026,0.3-0.04,0.45C291.514,155.423,292.157,155.494,292.256,155.108L292.256,155.108z"/>
		</g>
	</g>
	<g>
		<g>
			<path fill="#333333" d="M340.291,82.59c1.491,3.318,3.055,6.606,4.666,9.869c0.755,1.529,2.339,6.902,4.472,7.026
				c0.551,0.032,0.862-0.449,0.925-0.924c0.113-0.874-0.695-1.839-1.084-2.555c-0.938-1.732-1.834-3.488-2.738-5.237
				c-1.547-2.991-3.021-6.382-5.232-8.956C340.787,81.217,340.015,81.975,340.291,82.59L340.291,82.59z"/>
		</g>
	</g>
	<g>
		<g>
			<path fill="#333333" d="M360.409,137.753c-0.135-0.029-0.271-0.059-0.405-0.088c-0.493-0.733-1.611-0.094-1.189,0.695
				c1.532,2.868,3.54,5.586,5.484,8.184c0.991,1.325,3.259,5.225,5.334,4.319c0.527-0.23,0.56-0.913,0.355-1.356
				c-0.308-0.667-1.319-1.218-1.831-1.751c-1.072-1.118-2.018-2.369-2.955-3.6c-1.666-2.188-3.246-4.788-5.306-6.63
				c0.036,0.278,0.071,0.556,0.107,0.834c0.135-0.029,0.271-0.059,0.405-0.088C360.744,138.264,360.744,137.762,360.409,137.753
				L360.409,137.753z"/>
		</g>
	</g>
	<g>
		<g>
			<path fill="#644172" d="M356.406,177.087c-2.801-0.293,1.656-9.599,2.105-10.424c1.66-3.052,3.731-4.053,7.217-3.524
				c2.709,0.411,4.623,0.138,5.995-2.352c1.117-2.027,0.024-4.437-1.193-6.086c-3.108-4.21,9.936-6.338,12.701-7.094
				c5.763-1.576,11.395-4.62,16.122-8.215c2.377-1.808,8.198-7.986,3.129-10.36c-0.947-0.443-1.847,0.271-1.676,1.288
				c1.007,6.007-7.857,9.657-12.418,11.889c-3.449,1.688-7.134,2.644-10.843,3.588c-3.322,0.846-8.198,1.897-10.379,4.885
				c-1.093,1.499-1.088,2.887-0.177,4.476c0.43,0.749,4.463,5.174,0.209,5.252c-1.713,0.031-3.288-0.463-5.03-0.189
				c-6.901,1.085-9.329,11.693-7.829,17.453c0.061,0.232,0.313,0.458,0.566,0.431c0.5-0.053,1-0.105,1.5-0.157
				C356.959,177.888,356.959,177.145,356.406,177.087L356.406,177.087z"/>
		</g>
	</g>
	<g>
		<g>
			<path fill="#333333" d="M343.042,72.906c1.523,0.027,3.37-3.521,4.227-4.762c1.387-2.01,2.697-4.073,4.111-6.064
				c0.839-1.182-1.117-2.317-1.941-1.135c-2.355,3.384-4.373,6.986-6.808,10.316c-0.623,0.853-1.447,1.57-0.815,2.648
				c0.354,0.604,1.046,0.463,1.564,0.243C344.027,73.878,343.653,72.917,343.042,72.906L343.042,72.906z"/>
		</g>
	</g>
	<g>
		<g>
			<path fill="#333333" d="M359.638,49.513c-0.015,0.466-0.092,0.919-0.233,1.361c-0.175,0.659,0.788,0.908,1.01,0.278
				c0.601-1.713,0.201-4.547-2.13-4.574c-2.33-0.027-4.141,1.958-4.98,3.951c-0.929,2.205-1.436,5.202,0.791,6.838
				c1.364,1.003,2.666,1.099,4.286,0.792c1.289-0.244,2.506-0.745,2.487-2.147c-0.003-0.269-0.297-0.561-0.581-0.443
				c-1.617,0.674-3.321,1.535-5.038,0.55c-1.581-0.906-1.151-3.025-0.696-4.428c0.48-1.484,1.428-2.917,2.94-3.489
				c1.984-0.751,1.896,1.521,1.893,2.81c0.343-0.046,0.686-0.093,1.028-0.139c-0.142-0.441-0.219-0.895-0.233-1.361
				C360.146,49.163,359.672,49.163,359.638,49.513L359.638,49.513z"/>
		</g>
	</g>
	<g>
		<g>
			<path fill="#333333" d="M366.519,42.405c-0.429,2.517-0.616,5.078-0.756,7.626c-0.089,1.627-0.879,4.999,0.335,6.293
				c0.16,0.171,0.463,0.171,0.623,0c1.119-1.193,0.461-4.003,0.445-5.515c-0.027-2.77-0.018-5.531,0.147-8.297
				C367.341,42.061,366.596,41.954,366.519,42.405L366.519,42.405z"/>
		</g>
	</g>
	<g>
		<g>
			<path fill="#333333" d="M367.787,50.304c-0.38,0.183-0.523,0.217-0.878,0.171c-0.688-0.089-0.676,0.984,0,1.075
				c1.164,0.156,2.332,0.235,3.503,0.318c0.921,0.065,1.925,0.324,2.472-0.578c0.101-0.165,0.101-0.39,0-0.555
				c-0.547-0.902-1.551-0.644-2.472-0.578c-1.171,0.083-2.339,0.162-3.503,0.318c0.048,0.352,0.096,0.704,0.143,1.056
				c0.465-0.13,0.787-0.524,1.066-0.896C368.277,50.422,367.981,50.21,367.787,50.304L367.787,50.304z"/>
		</g>
	</g>
	<g>
		<g>
			<path fill="#333333" d="M374.584,45.837c-0.081-0.102-0.162-0.204-0.243-0.306c0.008-0.254-0.179-0.468-0.412-0.541
				c-0.115-0.036-0.23-0.072-0.346-0.108c-0.309-0.096-0.754,0.112-0.804,0.457c-0.604,4.146-1.319,9.862,0.685,13.726
				c0.379,0.73,1.502,0.694,1.891,0c0.385-0.688,0.099-0.955-0.014-1.671c-0.048-0.3-0.426-0.389-0.657-0.268
				c-0.559,0.293-0.91,0.319-0.274,0.292c0.352,0.268,0.703,0.536,1.056,0.803c-0.896-2.42-1.078-4.922-1.158-7.485
				c-0.036-1.156-0.063-2.313-0.105-3.469c-0.031-0.845-0.454-1.461,0.033-1.08C374.482,46.382,374.798,46.084,374.584,45.837
				L374.584,45.837z"/>
		</g>
	</g>
	<g>
		<g>
			<path fill="#333333" d="M378.241,58.513c0.059-1.082,2.415,0.316,2.74,0.522c1.499,0.948,1.313,1.561-0.362,1.927
				c-0.808,0.177-1.045,1.27-0.48,1.822c1.068,1.047,2.693,1.981,3.202,3.455c0.442,1.281-1.401,1.72-2.214,1.705
				c-1.037-0.018-2.116-0.605-2.859-1.289c0.104,0.394,0.208,0.787,0.312,1.181c0.141-0.388,0.294-0.768,0.43-1.157
				c0.128-0.365-0.21-0.818-0.6-0.788c-0.283,0.028-0.567,0.045-0.852,0.051c-0.389,0.015-0.869,0.209-1.037,0.594
				c-0.053,0.122-0.106,0.243-0.159,0.364c-0.212,0.484-0.248,1.08,0.189,1.47c2.185,1.944,5.999,2.939,8.175,0.459
				c2.671-3.043-0.99-5.693-3.046-7.588c-0.16,0.607-0.32,1.215-0.48,1.822c1.38-0.412,2.729-1.063,2.894-2.636
				c0.125-1.204-1.107-2.234-1.97-2.834c-1.489-1.037-5.167-1.821-4.534,1.007C377.674,58.982,378.222,58.874,378.241,58.513
				L378.241,58.513z"/>
		</g>
	</g>
	<g>
		<g>
			<path fill="#333333" d="M289.052,103.494c-4.688-1.376-9.454,2.211-14.143,2.376c-1.47,0.052-1.471,2.35,0,2.284
				c2.431-0.108,4.617-0.836,6.873-1.706c2.422-0.933,4.722-1.469,7.27-1.917C289.602,104.435,289.529,103.634,289.052,103.494
				L289.052,103.494z"/>
		</g>
	</g>
	<g>
		<g>
			<path fill="#CF5044" d="M261.099,102.199c-1.396-0.852-1.739,2.338-1.8,2.968c-0.232,2.384-0.311,4.958-0.112,7.349
				c0.13,1.573,2.343,1.586,2.453,0c0.121-1.738-0.169-3.56-0.237-5.3c-0.036-0.925-0.089-1.848-0.099-2.774
				c-0.003-0.393-0.028-0.784-0.029-1.177c-0.002-0.604-0.06-0.403-0.361-0.381C261.271,102.857,261.423,102.397,261.099,102.199
				L261.099,102.199z"/>
		</g>
	</g>
	<g>
		<g>
			<path fill="#CF5044" d="M260.741,107.641c0.999,0.347,2.188,0.293,3.228,0.254c0.539-0.021,1.078-0.041,1.616-0.078
				c0.316-0.021,0.67-0.042,0.948-0.205c0.036-0.021,0.657-0.651,0.428-0.404c0.435-0.467,0.334-1.16-0.194-1.505
				c0.281,0.184-0.156-0.117-0.234-0.168c-0.297-0.194-0.62-0.163-0.948-0.124c-0.556,0.065-1.106,0.18-1.657,0.274
				c-1.061,0.182-2.172,0.327-3.187,0.704C260.135,106.616,260.114,107.423,260.741,107.641L260.741,107.641z"/>
		</g>
	</g>
	<g>
		<g>
			<path fill="#CF5044" d="M267.718,100.516c0.002-0.175,0.005-0.35,0.007-0.525c0.551-1.266-1.325-2.013-1.719-0.725
				c-0.913,2.98-0.079,6.907,0.362,9.908c0.212,1.444,1.041,6.633,3.604,4.55c0.283-0.23,0.309-0.63,0.253-0.957
				c0.229,1.345,0.128,0.158,0.079-0.278c-0.054-0.48-0.264-0.878-0.415-1.333c-0.417-1.249-0.6-2.583-0.827-3.875
				c-0.458-2.609-0.411-5.491-1.244-8.016c-0.219,0.386-0.438,0.771-0.657,1.157c-0.015,0.058-0.029,0.116-0.044,0.174
				C267.183,100.935,267.739,100.857,267.718,100.516L267.718,100.516z"/>
		</g>
	</g>
	<g>
		<g>
			<path fill="#333333" d="M304.581,71.912c-0.283-0.375-0.493-0.64-0.875-0.908c-0.55-0.386-1.207,0.481-0.713,0.925
				c2.492,2.243,4.346,5.095,6.793,7.417c0.679,0.645,1.858,1.894,2.925,1.601c0.763-0.209,0.964-1.039,0.574-1.653
				c-0.146-0.229-0.485-0.299-0.684-0.088c0.586,0.204,0.7,0.191,0.342-0.04c-0.117-0.074-0.239-0.139-0.366-0.195
				c-0.4-0.197-0.742-0.512-1.076-0.799c-0.845-0.726-1.613-1.543-2.385-2.344c-1.655-1.717-3.163-4.166-5.551-4.882
				c0.047,0.359,0.094,0.718,0.141,1.077c0.201,0.054,0.401,0.109,0.603,0.164C304.468,72.292,304.702,72.073,304.581,71.912
				L304.581,71.912z"/>
		</g>
	</g>
	<g>
		<g>
			<path fill="#333333" d="M309.51,69.34c-0.03,0.015-0.062,0.029-0.092,0.043c0.46-0.726-0.877-1.272-1.061-0.447
				c-0.234,1.055,0.478,1.821,0.994,2.72c0.788,1.373,1.763,2.67,2.756,3.899c1.771,2.191,4.385,4.607,7.302,4.921
				c0.91,0.098,1.175-1.083,0.682-1.646c-0.223-0.253-0.575-0.466-0.775-0.724c-0.32-0.412-0.984-0.053-0.98,0.406
				c0.004,0.346,0.126,0.666,0.11,1c0.483-0.277,0.967-0.555,1.45-0.833c-2.195-1.298-4.129-2.273-5.936-4.156
				c-0.793-0.826-1.516-1.727-2.228-2.622c-0.597-0.749-2.084-2.029-2.256-2.966c-0.136,0.238-0.271,0.476-0.405,0.713
				c0.095,0.019,0.189,0.037,0.285,0.055C309.588,69.769,309.684,69.468,309.51,69.34L309.51,69.34z"/>
		</g>
	</g>
	<g>
		<g>
			<path fill="#CF5044" d="M298.13,51.635c-2.949-1.375-5.485,0.956-5.773,3.878c-0.402,4.072,3.601,6.511,7.181,6.517
				c4.569,0.008,8.309-4.389,7.745-8.829c-0.666-5.231-7.223-6.513-11.311-4.437c-0.553,0.281-0.58,1.226,0,1.498
				c2.421,1.136,5.54-0.189,7.595,1.771c2.719,2.593-0.819,6.398-3.329,7.11c-2.31,0.656-4.711-0.616-5.323-2.896
				c-0.616-2.295,1.135-3.492,3.111-3.813C298.391,52.375,298.46,51.789,298.13,51.635L298.13,51.635z"/>
		</g>
	</g>
	<g>
		<g>
			<path fill="#CF5044" d="M594.306,329.601c1.316,1.663,2.887-1.391,3.258-2.281c1.074-2.572,1.396-5.814,1.477-8.589
				c-0.776,0.321-1.553,0.643-2.329,0.965c2.974,3.69,5.849,7.96,10.563,9.492c0.805,0.262,1.619-0.298,1.858-1.056
				c1.486-4.698,1.168-9.539,1.152-14.401c-0.007-2.075-3.242-2.076-3.219,0c0.053,4.581,0.401,9.13-0.848,13.599
				c0.619-0.353,1.239-0.704,1.858-1.056c-4.106-1.237-6.808-5.371-9.437-8.508c-0.797-0.949-2.318-0.145-2.329,0.965
				c-0.017,1.85-0.261,3.704-0.566,5.524c-0.232,1.382-0.422,3.538-1.439,4.605C594.092,329.085,594.125,329.373,594.306,329.601
				L594.306,329.601z"/>
		</g>
	</g>
	<g>
		<g>
			<path fill="#333333" d="M602.077,336.392c-2.066,0.521,4.285,15.499,4.124,17.839c-0.053,0.77,0.709,1.51,1.47,1.47
				c5.343-0.282,9.689-3.628,14.904-4.199c2.331-0.255,7.869,0.398,9.175-2.14c0.435-0.844-0.099-1.86-1.079-1.881
				c-2.889-0.061-6.218,0.766-9.14,1.092c-4.856,0.543-8.909,3.762-13.86,4.188c0.49,0.489,0.979,0.979,1.47,1.47
				C609.217,352.09,604.432,335.799,602.077,336.392L602.077,336.392z"/>
		</g>
	</g>
	<g>
		<g>
			<path fill="#333333" d="M637.334,351.533c-0.146,0.213-0.37,0.434-0.348,0.716c0.038,0.481,0.484,0.733,0.919,0.527
				c2.79-1.323,2.872-5.937,3.002-8.546c-0.768,0.208-1.536,0.416-2.305,0.624c2.287,3.465,6.466,10.928,11.751,8.077
				c5.041-2.719,2.193-8.885,3.854-13.277c0.562-1.485-1.646-2.73-2.664-1.551c-2.265,2.622-0.9,7.156-1.496,10.322
				c-1.16,6.163-8.192-3.601-9.503-5.07c-0.737-0.827-2.104-0.155-2.11,0.875c-0.012,1.821-0.271,3.567-0.578,5.358
				c-0.061,0.354-1.101,2.346-0.467,2.089c0.233,0.179,0.467,0.356,0.7,0.534c-0.01-0.161-0.019-0.321-0.028-0.481
				C638.038,351.332,637.556,351.211,637.334,351.533L637.334,351.533z"/>
		</g>
	</g>
	<g>
		<g>
			<path fill="#333333" d="M609.739,310.438c0.555-1.179,1.594-2.224,1.926-3.498c0.716-2.747,0.707-5.525,1.043-8.334
				c-0.348,0.349-0.696,0.697-1.045,1.045c5.591-0.607,10.819-2.671,16.36-3.438c3.063-0.425,6.09-0.856,9.087-1.634
				c3.194-0.83,4.048,3.533,5.363,6.033c2.836,5.389,5.682,10.957,9.855,15.426c4.097,4.385-4.171,10.041-4.832,15.049
				c-0.189,1.436,2.329,1.773,2.528,0.343c0.808-5.806,9.509-9.673,5.253-15.858c-2.395-3.478-5.118-6.51-7.277-10.205
				c-2.601-4.451-4.935-9.06-7.44-13.564c-0.242-0.436-0.89-0.765-1.382-0.563c-4.244,1.742-8.749,2.264-13.256,2.924
				c-4.927,0.724-9.566,2.764-14.538,3.436c-0.475,0.064-0.737,0.59-0.767,1.008c-0.188,2.65-0.083,5.268-0.504,7.906
				c-0.194,1.216-0.938,2.359-1.214,3.572C608.789,310.57,609.509,310.928,609.739,310.438L609.739,310.438z"/>
		</g>
	</g>
	<g>
		<g>
			<path fill="#333333" d="M605.671,352.488c-2.261,0.186-4.241,2.173-5.792,3.666c-2.083,2.004-3.831,4.396-5.638,6.646
				c-0.755,0.939-0.094,2.641,1.279,2.197c1.118-0.36,1.648-0.906,2.177-1.96c0.203-0.405-0.042-0.917-0.526-0.917
				c-0.715,0-1.298,0.312-2,0.295c0.31,0.748,0.62,1.496,0.93,2.244c1.604-1.908,3.012-3.973,4.617-5.883
				c1.673-1.991,3.538-3.356,5.478-5.021C606.674,353.346,606.303,352.437,605.671,352.488L605.671,352.488z"/>
		</g>
	</g>
	<g>
		<g>
			<path fill="#333333" d="M609.138,354.919c-1.39,2.389-3.114,4.022-5.266,5.749c-1.393,1.119-4.953,2.976-4.771,5.063
				c0.049,0.561,0.45,1.098,1.07,1.07c1.201-0.053,1.827-0.962,2.661-1.729c1.228-1.128,2.524-2.176,3.742-3.313
				c1.754-1.638,4.149-4.065,3.691-6.692C610.171,354.521,609.389,354.488,609.138,354.919L609.138,354.919z"/>
		</g>
	</g>
	<g>
		<g>
			<path fill="#CF5044" d="M588.518,373.326c0.064-0.151,0.128-0.302,0.191-0.453c0.129-0.301,0.112-0.556-0.104-0.812
				c-1.539-1.815-4.742,1.589-5.57,2.754c-1.65,2.321-1.655,6.201,0.325,8.332c3.136,3.374,8.681,3.842,12.02,0.599
				c2.662-2.585,3.562-7.126,2.32-10.576c-1.529-4.256-6.28-5.302-9.587-2.497c-0.535,0.453-0.096,1.359,0.558,1.347
				c2.167-0.041,4.768-0.353,5.94,1.835c0.992,1.852,0.516,4.456-0.361,6.243c-1.109,2.259-3.229,3.325-5.688,2.767
				c-2.204-0.5-3.9-1.811-3.949-4.196c-0.044-2.145,1.788-4.711,3.741-5.505c-0.168-0.128-0.334-0.255-0.502-0.383
				c-0.014,0.15-0.027,0.3-0.04,0.45C587.775,373.641,588.418,373.712,588.518,373.326L588.518,373.326z"/>
		</g>
	</g>
	<g>
		<g>
			<path fill="#333333" d="M636.553,300.809c1.491,3.318,3.055,6.605,4.666,9.869c0.755,1.529,2.339,6.901,4.472,7.025
				c0.551,0.033,0.862-0.448,0.925-0.924c0.113-0.873-0.695-1.839-1.084-2.555c-0.938-1.732-1.834-3.488-2.738-5.238
				c-1.547-2.99-3.021-6.381-5.232-8.956C637.049,299.436,636.276,300.192,636.553,300.809L636.553,300.809z"/>
		</g>
	</g>
	<g>
		<g>
			<path fill="#333333" d="M656.671,355.971c-0.135-0.029-0.271-0.059-0.405-0.088c-0.493-0.732-1.611-0.094-1.189,0.695
				c1.532,2.868,3.54,5.586,5.484,8.184c0.991,1.324,3.259,5.225,5.334,4.318c0.527-0.23,0.56-0.912,0.355-1.355
				c-0.308-0.666-1.319-1.218-1.831-1.751c-1.072-1.118-2.018-2.369-2.955-3.6c-1.666-2.188-3.246-4.788-5.306-6.63
				c0.036,0.277,0.071,0.556,0.107,0.834c0.135-0.029,0.271-0.059,0.405-0.088C657.006,356.481,657.006,355.979,656.671,355.971
				L656.671,355.971z"/>
		</g>
	</g>
	<g>
		<g>
			<path fill="#644172" d="M652.668,395.305c-2.802-0.293,1.656-9.599,2.105-10.424c1.66-3.052,3.731-4.053,7.217-3.524
				c2.709,0.411,4.623,0.138,5.995-2.352c1.117-2.027,0.024-4.437-1.193-6.086c-3.108-4.211,9.936-6.339,12.701-7.095
				c5.763-1.576,11.395-4.619,16.122-8.215c2.377-1.808,8.198-7.986,3.129-10.36c-0.947-0.443-1.847,0.271-1.676,1.288
				c1.007,6.008-7.857,9.657-12.418,11.89c-3.449,1.688-7.134,2.644-10.843,3.587c-3.322,0.847-8.198,1.897-10.379,4.885
				c-1.093,1.499-1.088,2.887-0.177,4.477c0.43,0.749,4.463,5.174,0.209,5.252c-1.713,0.031-3.288-0.464-5.03-0.189
				c-6.901,1.085-9.328,11.692-7.828,17.453c0.061,0.232,0.313,0.457,0.565,0.431c0.5-0.053,1-0.104,1.5-0.157
				C653.221,396.106,653.221,395.362,652.668,395.305L652.668,395.305z"/>
		</g>
	</g>
	<g>
		<g>
			<path fill="#333333" d="M616.731,298.648c-2.119,0.533-2.621,4.139-2.997,5.89c-0.694,3.228-0.902,6.589-1.979,9.724
				c-0.474,1.382,1.712,1.973,2.18,0.602c0.893-2.624,1.168-5.411,1.579-8.138c0.234-1.558,0.556-3.088,0.937-4.615
				c0.255-1.021,0.881-1.986,0.823-3.048C617.26,298.781,617.013,298.578,616.731,298.648L616.731,298.648z"/>
		</g>
	</g>
	<g>
		<g>
			<path fill="#333333" d="M610.869,299.563c0.04-6.166-9.184-6.32-12.687-9.759c-0.524-0.514-1.216-0.535-1.85-0.238
				c-0.252,0.118-0.388,0.335-0.548,0.548c-0.416,0.551-0.191,1.393,0.238,1.85c1.771,1.886,4.455,2.747,6.801,3.673
				c1.917,0.757,6.165,1.862,7.017,4.065C610.046,300.231,610.865,300.187,610.869,299.563L610.869,299.563z"/>
		</g>
	</g>
	<g>
		<g>
			<path fill="#333333" d="M578.729,290.457c-0.227-0.671,0.283-3.094,0.39-4.086c0.224-2.1,0.637-4.197,0.723-6.309
				c-0.652,0.088-1.305,0.177-1.957,0.265c0.746,4.77,4.591,10.22,9.615,10.991c0.866,0.133,1.59-0.342,1.648-1.256
				c0.26-4.071,2.5-11.322-0.695-14.607c-0.435-0.447-1.297-0.257-1.437,0.379c-0.442,2.028,0.134,4.126,0.064,6.211
				c-0.088,2.683-0.591,5.326-0.538,8.018c0.435-0.434,0.869-0.868,1.303-1.303c-4.067,0.03-7.396-5.466-8.039-8.962
				c-0.209-1.136-1.941-0.826-1.957,0.265c-0.016,1.072-1.601,12.037,0.697,10.844C578.697,290.828,578.784,290.618,578.729,290.457
				L578.729,290.457z"/>
		</g>
	</g>
	<g>
		<g>
			<path fill="#333333" d="M593.254,273.069c-0.001-0.013,1.142-0.953,1.384-1.115c1.021-0.683,1.978-1.498,2.962-2.234
				c1.505-1.126,4.113-2.523,4.97-4.258c0.49-0.993-0.522-2.166-1.562-1.562c-0.954,0.556-1.757,1.577-2.591,2.305
				c-1.103,0.964-2.195,1.939-3.276,2.928c-0.848,0.774-3.364,2.724-2.644,4.142C592.679,273.632,593.274,273.468,593.254,273.069
				L593.254,273.069z"/>
		</g>
	</g>
	<g>
		<g>
			<path fill="#333333" d="M606.858,250.204c0.825,1.958,1.024,3.748,1.014,5.872c-0.011,2.191-0.651,4.657-0.159,6.806
				c0.317,1.391,2.179,0.923,2.312-0.313c0.058-0.535,0.103-1-0.251-1.426c-0.159-0.19-0.527-0.24-0.729-0.094
				c-0.263,0.191-0.468,0.36-0.79,0.503c0.576,0.443,1.152,0.887,1.729,1.329c0.62-2.455,0.37-5.566,0.134-8.066
				c-0.175-1.849-0.626-4.536-2.634-5.235C607.145,249.462,606.709,249.851,606.858,250.204L606.858,250.204z"/>
		</g>
	</g>
	<g>
		<g>
			<path fill="#333333" d="M609.433,257.378c0.836-0.132,1.711-0.121,2.585-0.324c1.326-0.308,2.791-0.605,3.964-1.327
				c0.399-0.246,0.569-0.689,0.465-1.143c-0.067-0.291-0.233-0.438-0.465-0.604c-0.289-0.209-0.729-0.165-1.021,0
				c-1.163,0.653-2.368,1.218-3.601,1.728c-0.68,0.282-1.733,0.909-2.097,1.054C608.877,256.914,609.023,257.442,609.433,257.378
				L609.433,257.378z"/>
		</g>
	</g>
	<g>
		<g>
			<path fill="#333333" d="M615.018,247.376c-1.363,1.89-0.656,4.738-0.206,6.826c0.492,2.282,1.062,6.195,3.055,7.69
				c0.607,0.455,1.422-0.169,1.435-0.823c0.038-1.909-1.649-4.247-2.356-5.977c-0.955-2.334-1.619-4.896-1.228-7.422
				C615.784,247.238,615.278,247.014,615.018,247.376L615.018,247.376z"/>
		</g>
	</g>
	<g>
		<g>
			<path fill="#333333" d="M569.42,281.827c0.329-0.182,0.68-0.283,1.055-0.304c0.455-0.077,0.402-0.655,0.113-0.871
				c-1.973-1.477-5.717-1.316-8.114-1.593c-3.33-0.383-6.82-0.579-10.006,0.625c-1.71,0.646-0.963,3.417,0.76,2.758
				c2.962-1.135,6.141-0.921,9.246-0.692c2.394,0.177,6.011,1.178,8.114-0.275c-0.192-0.249-0.385-0.499-0.577-0.748
				c-0.267,0.2-0.534,0.4-0.801,0.601C568.951,281.48,569.127,281.949,569.42,281.827L569.42,281.827z"/>
		</g>
	</g>
	<g>
		<g>
			<path fill="#CF5044" d="M530.994,275.21c-1.054,1.193-0.854,3.309-0.804,4.781c0.071,2.094,0.256,4.246,0.78,6.28
				c0.131,0.502,0.593,0.811,1.093,0.831c-0.083-0.003,0.366,0.056,0.552-0.08c0.162-0.119,0.254-0.254,0.264-0.459
				c-0.025,0.492-0.271,0.409-0.014,0.208c0.303-0.238,0.393-0.752,0.291-1.103c-0.475-1.627-0.759-3.33-1.02-5.002
				c-0.229-1.474-0.694-3.485-0.307-4.971C531.951,275.233,531.337,274.821,530.994,275.21L530.994,275.21z"/>
		</g>
	</g>
	<g>
		<g>
			<path fill="#CF5044" d="M532.527,281.443c1.752-0.198,3.576,0.415,5.32-0.04c1.361-0.354,1.116-2.688-0.34-2.51
				c-1.717,0.212-4.149,0.042-5.527,1.228C531.492,280.54,531.861,281.519,532.527,281.443L532.527,281.443z"/>
		</g>
	</g>
	<g>
		<g>
			<path fill="#CF5044" d="M539.348,273.251c-2.585,0.313-1.4,5.776-1.105,7.351c0.206,1.103,1.578,7.473,3.91,5.718
				c0.406-0.307,0.514-0.705,0.307-1.173c-0.689-1.565-1.602-3.314-2.131-5.121c-0.656-2.244-0.592-4.211-0.668-6.462
				C539.654,273.409,539.521,273.23,539.348,273.251L539.348,273.251z"/>
		</g>
	</g>
</g>
<g id="Text">
	<g>
		<g>
			<g>
				<path fill="#1C758A" d="M278.498,199.917c0.01-0.143,4.281-0.979,4.806-1.116c1.453-0.376,2.851-1.073,4.245-1.618
					c1.521-0.595,3.124-0.86,4.604-1.538c0.858-0.393,0.3-1.482-0.426-1.572c-3.441-0.427-6.868,2.299-10.023,3.336
					c-1.054,0.346-4.141,0.948-4.082,2.507C277.645,200.484,278.46,200.477,278.498,199.917L278.498,199.917z"/>
			</g>
		</g>
		<g>
			<g>
				<path fill="#1C758A" d="M284.351,198.021c0.122,0.9-0.121,2.508-0.131,3.563c-0.036,3.554,0.136,7.108,0.066,10.667
					c-0.025,1.245,1.887,1.518,2.176,0.294c0.136-0.473,0.226-0.954,0.269-1.443c0.089-0.648-0.62-1.211-1.162-0.677
					c-0.354,0.316-0.673,0.664-0.959,1.042c0.631,0.261,1.261,0.522,1.892,0.784c-0.075-3.685-0.32-7.311-0.626-10.979
					c-0.072-0.865-0.044-3.234-0.951-3.692C284.594,197.413,284.305,197.684,284.351,198.021L284.351,198.021z"/>
			</g>
		</g>
		<g>
			<g>
				<path fill="#1C758A" d="M292.631,196.917c-0.604,4.725,0.085,9.583,0.018,14.334c-0.02,1.407,2.052,1.37,2.158,0
					c0.079-1.017,2.499-7.794,4.006-7.006c1.493,0.781,0.565,7.003,1.144,8.644c0.414,1.174,2.284,1.048,2.25-0.305
					c-0.008-0.312-0.064-0.545-0.157-0.848c-0.124-0.402-0.619-0.653-0.999-0.406c-0.098,0.05-0.196,0.1-0.294,0.149
					c0.47,0.267,0.939,0.533,1.409,0.8c-0.43-2.448,0.665-10.413-3.461-10.413c-3.57,0-5.884,6.556-6.055,9.384
					c0.719,0,1.439,0,2.158,0c-0.163-4.809-0.621-9.688-1.332-14.448C293.396,196.279,292.686,196.484,292.631,196.917
					L292.631,196.917z"/>
			</g>
		</g>
		<g>
			<g>
				<path fill="#1C758A" d="M306.952,204.809c-2.316,1.837-1.834,8.1,1.866,7.863c3.862-0.247,5.267-6.278,3.61-9.025
					c-0.612-1.015-2.229-0.598-2.23,0.604c-0.008,5.756,6.032,9.252,9.793,12.683c2.084,1.901,4.72,5.503,0.22,5.822
					c-2.61,0.185-5.483-0.87-7.502-2.487c-0.353-0.283-0.826-0.022-0.744,0.433c0.827,4.606,11.761,7.095,13.358,1.914
					c2.475-8.033-12.576-10.892-12.732-18.365c-0.743,0.201-1.487,0.403-2.23,0.604c1.082,1.707,0.274,3.782-0.946,5.194
					c-1.906,2.207-2.103-3.526-1.481-4.483C308.351,204.924,307.468,204.399,306.952,204.809L306.952,204.809z"/>
			</g>
		</g>
		<g>
			<g>
				<path fill="#1C758A" d="M320.112,204.866c1.575,1.504,1.463,4.017,1.229,6.051c-0.152,1.325,2.045,1.374,2.105,0
					c0.082-1.847,0.079-4.905,1.844-6.037c-0.546-0.222-1.092-0.444-1.638-0.667c0.343,1.289,0.758,2.456,1.447,3.599
					c0.289,0.479,1.027,0.761,1.522,0.399c1.777-1.296,2.475-3.232,3.889-4.845c-0.58-0.075-1.159-0.149-1.739-0.224
					c1.362,2.184,0.614,8.627,3.722,9.292c0.58,0.125,1.365-0.415,1.086-1.086c-0.601-1.439-1.167-2.588-1.429-4.179
					c-0.293-1.781-0.506-3.578-1.467-5.145c-0.355-0.58-1.253-0.771-1.739-0.224c-1.24,1.395-1.922,3.38-3.445,4.489
					c0.508,0.133,1.015,0.266,1.522,0.399c-0.589-0.979-0.929-1.973-1.219-3.069c-0.179-0.677-1.031-1.055-1.638-0.667
					c-2.554,1.633-2.878,5.189-2.824,7.963c0.702,0,1.404,0,2.105,0c-0.216-1.828-0.2-7.159-3.159-6.717
					C319.985,204.245,319.913,204.676,320.112,204.866L320.112,204.866z"/>
			</g>
		</g>
		<g>
			<g>
				<path fill="#1C758A" d="M335.502,204.763c-0.46,1.156-0.136,2.907,0.062,4.091c0.203,1.228,0.474,3.531,2.187,3.292
					c1.685-0.236,0.354-2.505,0.079-3.315c-0.462-1.364-0.69-2.897-1.271-4.206C336.331,204.112,335.663,204.36,335.502,204.763
					L335.502,204.763z"/>
			</g>
		</g>
		<g>
			<g>
				<path fill="#1C758A" d="M335.27,201.145c1.439,0,1.439-2.232,0-2.232S333.83,201.145,335.27,201.145L335.27,201.145z"/>
			</g>
		</g>
		<g>
			<g>
				<path fill="#1C758A" d="M342.188,204.251c-0.316,2.493,0.162,4.84,0.304,7.333c0.076,1.351,2.075,1.733,2.427,0.329
					c0.648-2.596,0.741-6.55,3.435-7.924c-0.501-0.064-1.002-0.129-1.504-0.194c1.485,1.676,0.353,8.461,3.878,8.005
					c0.676-0.087,1.084-0.679,0.763-1.329c-0.274-0.554-0.667-1.009-0.859-1.603c-0.249-0.765-0.305-1.602-0.405-2.396
					c-0.207-1.633-0.511-3.163-1.62-4.434c-0.381-0.436-1.028-0.433-1.504-0.194c-3.475,1.742-3.804,6.054-4.565,9.41
					c0.794,0,1.589,0,2.383,0c-0.592-2.357-1.257-4.76-1.672-7.148C343.134,203.453,342.258,203.704,342.188,204.251
					L342.188,204.251z"/>
			</g>
		</g>
		<g>
			<g>
				<path fill="#1C758A" d="M356.812,206.676c2.113,1.268,5.752-1.089,4.698-3.625c-0.982-2.366-4.185-0.875-5.229,0.597
					c-1.375,1.939-1.954,5.099-0.397,7.103c1.212,1.559,3.32,1.998,5.194,1.993c1.211-0.003,4.224-0.249,4.604-1.784
					c0.199-0.803-0.353-1.813-1.313-1.503c-0.588,0.189-1.078,0.526-1.684,0.694c-1.545,0.429-3.789,0.653-5.055-0.542
					c-0.801-0.756-0.674-2.036-0.473-3.004c0.18-0.869,0.526-1.635,1.148-2.272c0.158-0.162,1.21-0.881,1.453-0.542
					c0.128,0.179-0.427,0.869-0.511,0.989c-0.52,0.739-1.351,0.925-2.189,0.981C356.582,205.791,356.373,206.414,356.812,206.676
					L356.812,206.676z"/>
			</g>
		</g>
	</g>
	<g>
		<g>
			<g>
				<path fill="#1C758A" d="M115.854,180.292c-2.243,3.357-3.774,7.383-4.587,11.319c-0.263,1.273,1.284,1.854,2.021,0.852
					c2.956-4.025,4.345-8.803,6.394-13.297c-0.677,0-1.354,0-2.031,0c2.373,3.083,4.715,13.47,9.957,12.784
					c0.658-0.086,1.327-0.518,1.281-1.281c-0.044-0.734-0.547-1.215-1.281-1.282c-1.624-0.146-2.683-2.25-3.442-3.479
					c-1.639-2.651-2.723-5.719-4.668-8.167c-0.442-0.557-1.562-0.415-1.847,0.238c-1.984,4.532-3.455,9.252-6.272,13.369
					c0.673,0.284,1.347,0.568,2.021,0.852c0.686-3.989,2.193-7.667,3.469-11.479C117.077,180.094,116.188,179.791,115.854,180.292
					L115.854,180.292z"/>
			</g>
		</g>
		<g>
			<g>
				<path fill="#1C758A" d="M117,188.482c-0.131-0.001-0.259-0.021-0.385-0.061c-0.144,0.34-0.287,0.681-0.431,1.021
					c1.007,0.253,2.161,0.04,3.162-0.17c0.603-0.126,1.211-0.244,1.827-0.283c0.635-0.041,1.057,0.183,1.65-0.157
					c0.435-0.25,0.488-0.74,0.304-1.161c-0.956-2.187-5.517,0.207-6.943,0.692c-0.812,0.277-0.202,1.467,0.431,1.021
					c0.126-0.04,0.254-0.06,0.385-0.061C117.544,189.301,117.544,188.508,117,188.482L117,188.482z"/>
			</g>
		</g>
		<g>
			<g>
				<path fill="#1C758A" d="M135.732,185.461c-0.638-2.45-3.256-1.655-4.737-0.478c-2.266,1.801-2.417,5.388,0.074,7.076
					c2.882,1.954,5.556-0.539,6.997-3.025c2.063-3.559,1.909-8.412,0.299-12.066c-0.518-1.174-2.167-0.47-2.228,0.604
					c-0.277,4.972,0.99,10.39,4.333,14.195c1.051,1.197,2.694-0.525,1.724-1.724c-2.83-3.495-3.914-8.036-3.667-12.471
					c-0.743,0.201-1.485,0.402-2.228,0.604c1.482,3.364,1.124,7.667-0.905,10.734c-0.483,0.73-1.306,1.508-2.219,1.619
					c-1.749,0.211-1.853-2.066-1.459-2.968c0.547-1.254,2.063-2.33,3.407-1.631C135.443,186.095,135.827,185.824,135.732,185.461
					L135.732,185.461z"/>
			</g>
		</g>
		<g>
			<g>
				<path fill="#1C758A" d="M146.21,187.349c1.702,0.358,3.471-0.57,3.169-2.525c-0.272-1.766-2.246-2.336-3.553-1.23
					c-2.048,1.732-2.634,5.025-1.18,7.277c1.329,2.059,5.269,3.241,7.027,1.041c0.607-0.759,0.048-1.763-0.927-1.593
					c-0.711,0.124-1.312,0.528-2.048,0.579c-0.709,0.05-1.397-0.222-1.932-0.677c-1.365-1.162-1.063-2.984-0.316-4.391
					c0.146-0.276,0.86-1.435,1.136-0.775c0.35,0.837-0.768,1.24-1.376,1.405C145.786,186.575,145.753,187.252,146.21,187.349
					L146.21,187.349z"/>
			</g>
		</g>
		<g>
			<g>
				<path fill="#1C758A" d="M152.783,186.056c0.64,2.685,1.302,5.04,1.299,7.849c-0.002,1.447,2.03,1.658,2.458,0.333
					c0.56-1.737,0.973-3.51,1.619-5.221c0.19-0.504,0.624-1.817,1.191-2.043c-0.134,0.053-0.04,0.024,0.068,0.417
					c0.118,0.43,0.198,0.872,0.287,1.309c0.32,1.575,0.523,3.865,1.864,4.958c1.279,1.042,2.992-0.512,1.771-1.772
					c-1.883-1.944-0.306-8.147-4.661-7.341c-1.613,0.299-2.438,2.505-2.961,3.8c-0.686,1.693-1.043,3.492-1.592,5.229
					c0.819,0.111,1.639,0.222,2.458,0.333c-0.097-2.674-0.68-6.563-2.848-8.403C153.307,185.137,152.645,185.476,152.783,186.056
					L152.783,186.056z"/>
			</g>
		</g>
		<g>
			<g>
				<path fill="#1C758A" d="M166.12,186.207c-1.226,0.571-1.118,1.889-0.848,3.015c0.185,0.773,0.639,1.454,0.822,2.224
					c0.196,0.824,0.321,1.604,0.706,2.368c0.218,0.433,0.808,0.655,1.262,0.513c0.217-0.067,0.393-0.077,0.586-0.216
					c0.39-0.281,0.439-1.038-0.149-1.142c0.019,0.02,0.038,0.04,0.057,0.06c0.064,0.243,0.128,0.486,0.193,0.729
					c-0.065,0.094-0.129,0.188-0.194,0.282c0.335-0.43,0.415-0.85,0.174-1.354c-0.396-0.83-0.548-1.764-1.02-2.558
					c-0.371-0.625-1.847-2.557-1.079-3.258C167.008,186.525,166.53,186.016,166.12,186.207L166.12,186.207z"/>
			</g>
		</g>
		<g>
			<g>
				<path fill="#1C758A" d="M166.665,180.906c-0.141-0.171-0.283-0.342-0.424-0.513c0.045,0.173,0.091,0.345,0.137,0.518
					c0.014-0.044,0.027-0.088,0.041-0.132c0.328-1.066-1.475-1.375-1.532-0.208c-0.031,0.633,0.417,1.583,1.015,1.851
					c0.476,0.214,1.054-0.033,1.06-0.608c0.009-0.896-0.271-1.91-1.294-2.023c0.069,0.511,0.138,1.021,0.208,1.532
					c0.044-0.014,0.088-0.027,0.132-0.041c-0.173-0.045-0.345-0.091-0.518-0.137c0.171,0.141,0.343,0.282,0.514,0.423
					C166.469,181.955,167.051,181.374,166.665,180.906L166.665,180.906z"/>
			</g>
		</g>
		<g>
			<g>
				<path fill="#1C758A" d="M171.735,185.836c0.863,0.856,0.784,2.623,0.862,3.754c0.09,1.308,0.085,2.643,0.403,3.923
					c0.229,0.918,1.42,0.963,1.896,0.248c1.583-2.379,1.479-6.603,3.978-8.265c-0.488-0.128-0.977-0.256-1.465-0.384
					c1.703,3.033,0.483,7.198,3.694,9.424c1.073,0.743,2.211-0.868,1.354-1.755c-2.283-2.362-1.646-5.974-3.198-8.75
					c-0.273-0.488-0.985-0.702-1.465-0.384c-3.015,1.999-3.061,6.146-4.688,9.067c0.632,0.083,1.264,0.165,1.896,0.248
					c-0.661-1.977-0.25-7.142-2.901-7.752C171.742,185.127,171.459,185.563,171.735,185.836L171.735,185.836z"/>
			</g>
		</g>
		<g>
			<g>
				<path fill="#1C758A" d="M185.991,188.914c1.486,1.226,3.286,1.314,4.858,0.15c1.191-0.882,1.783-2.896,0.663-4.083
					c-3.032-3.21-6.053,1.868-6.355,4.546c-0.333,2.954,2.24,5.101,4.781,5.902c2.078,0.655,5.455,0.554,6.137-2.011
					c0.126-0.475-0.064-1.139-0.551-1.354c-1.219-0.538-1.54,0.773-2.569,1.057c-1.229,0.339-2.648-0.029-3.739-0.615
					c-1.376-0.738-2.022-2.065-1.701-3.594c0.209-0.999,0.864-2.704,2.047-2.745c0.779-0.027,0.429,0.884,0.257,1.241
					c-0.532,1.107-2.3,1.187-3.242,0.744C186.114,187.935,185.538,188.54,185.991,188.914L185.991,188.914z"/>
			</g>
		</g>
	</g>
	<g>
		<g>
			<g>
				<path fill="#1C758A" d="M369.074,462.017c1.555-5.373-6.867-3.402-9.021-1.422c-3.981,3.659-4.748,12.428-2.732,17.148
					c2.095,4.904,12.624,3.018,14.747-0.832c1.064-1.927,1.189-4.649,0.223-6.612c-0.811-1.648-3.37-1.385-3.658,0.413
					c-0.049,0.303,0.023,0.638,0.323,0.794c1.769,0.918,1.46,2.873,0.57,4.641c-0.831,1.652-4.46,1.771-5.95,1.863
					c-3.243,0.199-4.621-1.332-4.75-4.445c-0.115-2.785,0.102-5.452,0.928-8.131c0.466-1.511,1.323-2.785,2.437-3.885
					c0.893-0.881,6.389-2.857,6.008,0.35C368.139,462.411,368.939,462.483,369.074,462.017L369.074,462.017z"/>
			</g>
		</g>
		<g>
			<g>
				<path fill="#1C758A" d="M364.645,470.637c3.049-0.366,6.299-0.014,9.317,0.527c-0.306-0.538-0.61-1.076-0.917-1.614
					c-1.037,7.521,0.351,14.87,2.352,22.117c0.672,2.437,4.482,0.622,2.742-1.597c-0.07-0.145-0.141-0.289-0.211-0.434
					c-0.363-0.934-1.537-0.934-1.898,0c-0.07,0.145-0.141,0.289-0.211,0.434c0.914,0.241,1.828,0.482,2.742,0.724
					c-1.943-6.909-2.979-13.711-2.938-20.896c0.004-0.654-0.603-1.395-1.313-1.313c-2.813,0.323-7.881-1.278-9.953,1.357
					C364.171,470.182,364.247,470.685,364.645,470.637L364.645,470.637z"/>
			</g>
		</g>
		<g>
			<g>
				<path fill="#1C758A" d="M379.133,470.385c0.117-0.104,0.236-0.208,0.354-0.312c0.765-0.675-0.567-1.798-1.129-0.872
					c-1.786,2.942-1.555,10.756,3.5,10.041c3.955-0.56,4.651-7.277,4.664-10.344c-0.807,0-1.614,0-2.422,0
					c0.07,2.849,1.1,10.618,5.424,9.769c0.597-0.117,0.756-0.935,0.352-1.332c-1.125-1.103-1.99-1.975-2.544-3.503
					c-0.569-1.57-0.8-3.271-0.81-4.934c-0.009-1.563-2.385-1.559-2.422,0c-0.053,2.352-0.434,5.607-1.969,7.49
					c-1.198,1.471-2.268-0.803-2.464-1.799c-0.326-1.656-0.04-3.363,0.03-5.025c-0.409,0.17-0.818,0.339-1.228,0.509
					c0.118,0.104,0.235,0.208,0.354,0.312C378.917,470.468,379.039,470.468,379.133,470.385L379.133,470.385z"/>
			</g>
		</g>
		<g>
			<g>
				<path fill="#1C758A" d="M396.014,470.332c0.078-0.167,0.154-0.334,0.232-0.501c0.491-0.393,0.213-1.3-0.375-1.42
					c-4.662-0.952-6.545,6.948-3.748,9.728c1.286,1.278,3.306,0.787,4.59-0.188c1.666-1.266,2.559-3.313,2.482-5.387
					c-0.058-1.563-2.456-1.574-2.435,0c0.032,2.365,1.31,7.944,4.854,5.854c0.423-0.25,0.349-0.774,0-1.039
					c-0.747-0.564-1.625-0.984-2.004-1.891c-0.383-0.913-0.411-1.95-0.416-2.924c-0.812,0-1.623,0-2.435,0
					c0.038,1.348-0.929,4.352-2.837,3.938c-0.978-0.212-0.822-2.451-0.719-3.123c0.095-0.614,0.313-1.221,0.57-1.783
					c0.066-0.147,1.414-1.854,1.5-1.264C395.33,470.699,395.961,470.699,396.014,470.332L396.014,470.332z"/>
			</g>
		</g>
		<g>
			<g>
				<path fill="#1C758A" d="M403.246,470.454c-0.396,2.634,0.69,5.171,0.946,7.776c0.089,0.899,1.188,1.573,1.909,0.791
					c0.98-1.064,1.486-2.364,1.949-3.715c0.497-1.455,0.777-3.549,2.133-4.486c-0.486-0.128-0.974-0.255-1.461-0.383
					c1.224,2.604,0.943,9.092,4.922,9.344c0.695,0.044,1.066-0.775,0.763-1.328c-0.372-0.68-0.975-1.128-1.411-1.77
					c-0.494-0.728-0.729-1.617-0.965-2.452c-0.465-1.65-0.766-3.295-1.465-4.872c-0.227-0.514-1.014-0.677-1.461-0.383
					c-2.963,1.95-2.432,5.973-4.586,8.463c0.623,0.164,1.247,0.329,1.87,0.494c-0.549-2.561-1.745-4.92-2.345-7.479
					C403.955,470.075,403.308,470.041,403.246,470.454L403.246,470.454z"/>
			</g>
		</g>
		<g>
			<g>
				<path fill="#1C758A" d="M415.769,472.749c-0.329,1.256,0.153,7.406,2.345,6.801c1.167-0.322,0.514-1.79,0.229-2.501
					c-0.57-1.416-1.021-2.852-1.488-4.3C416.688,472.234,415.915,472.19,415.769,472.749L415.769,472.749z"/>
			</g>
		</g>
		<g>
			<g>
				<path fill="#1C758A" d="M416.611,467.898c-0.01-0.516-0.174-0.988-0.115-1.508c-0.039,0.143-0.078,0.284-0.115,0.426
					c0.02-0.04,0.041-0.08,0.062-0.12c0.544-1.058-1.056-1.992-1.595-0.932c-0.302,0.595-0.172,2.339,0.797,2.339
					c0.97,0,1.1-1.744,0.798-2.339c-0.532,0.311-1.063,0.621-1.595,0.932c0.213,0.342,0.472,0.795,0.498,1.202
					C415.396,468.705,416.626,468.721,416.611,467.898L416.611,467.898z"/>
			</g>
		</g>
		<g>
			<g>
				<path fill="#1C758A" d="M420.4,471.316c0.846,0.58,1.021,2.342,1.2,3.254c0.257,1.313,0.368,2.656,0.55,3.98
					c0.117,0.857,1.486,1.203,2.012,0.531c0.883-1.125,1.328-2.398,1.758-3.751c0.364-1.143,0.755-3.81,2.029-4.327
					c-0.469-0.268-0.939-0.534-1.409-0.801c0.619,2.161,1.52,9.911,5.01,9.228c0.479-0.094,0.751-0.66,0.628-1.105
					c-0.354-1.267-1.482-2.377-1.963-3.663c-0.614-1.645-1.014-3.374-1.465-5.068c-0.148-0.56-0.829-1.023-1.41-0.801
					c-3.467,1.332-3.188,6.167-5.068,8.83c0.733,0.096,1.467,0.191,2.201,0.287c-0.313-1.657-1.066-8.322-3.957-7.479
					C420.094,470.555,420.061,471.084,420.4,471.316L420.4,471.316z"/>
			</g>
		</g>
		<g>
			<g>
				<path fill="#1C758A" d="M436.404,473.31c2.98,2.245,8.385-0.995,5.57-4.417c-0.922-1.119-2.843-0.976-3.84-0.079
					c-1.537,1.381-2.152,3.74-1.794,5.754c0.622,3.5,3.923,5.132,7.165,5.486c1.641,0.179,7.207-0.933,4.897-3.581
					c-0.228-0.261-0.614-0.2-0.851,0c0.566-0.48-0.441,0.235-0.66,0.381c-0.488,0.326-0.936,0.523-1.51,0.66
					c-1.475,0.351-3.25,0.078-4.616-0.537c-1.845-0.831-2.662-2.541-2.39-4.515c0.111-0.815,1.768-3.891,2.504-1.839
					c0.719,2.002-3.018,2.168-4.109,1.815C436.217,472.26,436.004,473.008,436.404,473.31L436.404,473.31z"/>
			</g>
		</g>
	</g>
	<g>
		<g>
			<g>
				<path fill="#1C758A" d="M578.46,452.111c0.155,0.774,0.169,1.552,0.037,2.333c-0.071,1.073,1.556,1.046,1.654,0
					c0.405-4.285-0.738-7.989-5.448-8.488c-4.516-0.478-6.348,6.708-7.238,9.752c-1.23,4.203-2.229,9.782,0.059,13.758
					c3.022,5.252,10.674,0.746,14.095-1.281c0.985-0.585,0.659-2.472-0.627-2.315c-0.221,0.037-0.443,0.054-0.667,0.05
					c-0.428,0.013-0.913,0.384-0.859,0.859c0.011,0.097,0.021,0.194,0.033,0.291c0.063,0.565,0.318,0.913,0.852,1.119
					c0.104,0.04,0.207,0.081,0.312,0.121c-0.099-0.757-0.198-1.514-0.297-2.271c-3.106,1.726-9.419,6.278-11.479,0.929
					c-0.961-2.494-0.214-5.793,0.234-8.316c0.373-2.094,0.995-4.115,1.711-6.117c0.557-1.555,1.401-3.1,2.764-4.104
					c4.438-3.271,4.742,4.478,4.903,6.016c0.542-0.073,1.083-0.146,1.625-0.22c-0.3-0.727-0.506-1.479-0.618-2.255
					C579.386,451.388,578.39,451.515,578.46,452.111L578.46,452.111z"/>
			</g>
		</g>
		<g>
			<g>
				<path fill="#1C758A" d="M585.358,462.604c-0.626,3.174-1.805,10.351,3.709,9.021c4.192-1.011,6.746-7.536,3.173-10.43
					c-0.654-0.53-1.559-0.5-2.035,0.262c-1.189,1.904,0.768,3.958,1.971,5.29c3.093,3.425,6.86,6.238,10.23,9.377
					c2.272,2.116,7.239,7.327,1.032,7.974c-4.473,0.466-9.224-2.01-11.274-5.949c-0.219-0.42-0.996-0.368-1.07,0.141
					c-1.09,7.435,14.725,12.338,17.973,5.415c1.795-3.825-2.17-7.317-4.613-9.628c-1.094-1.034-12.766-10.071-12.01-11.311
					c-0.679,0.087-1.357,0.175-2.035,0.262c2.354,1.87,0.148,4.893-1.733,6.089c-1.857,1.182-1.979-5.632-2.027-6.338
					C586.6,462.078,585.51,461.838,585.358,462.604L585.358,462.604z"/>
			</g>
		</g>
		<g>
			<g>
				<path fill="#1C758A" d="M602.096,449.778c0.024-0.176,0.048-0.351,0.072-0.526c-0.347-0.047-0.692-0.094-1.038-0.141
					c-0.042,4.346,1.725,8.325,2.243,12.602c0.465,3.84-0.205,7.67,1.117,11.388c0.457,1.287,2.31,1.075,2.379-0.322
					c0.047-0.946,0.054-0.956-0.253-1.839c-0.165-0.479-0.93-0.708-1.185-0.155c-0.186,0.512-0.458,0.973-0.819,1.383
					c0.738,0.097,1.476,0.192,2.214,0.289c-0.875-3.679-0.648-7.348-1.235-11.044c-0.674-4.237-2.3-8.307-3.423-12.441
					c-0.183-0.673-1.121-0.376-1.02,0.281c0.024,0.176,0.048,0.351,0.072,0.526C601.287,450.341,602.029,450.341,602.096,449.778
					L602.096,449.778z"/>
			</g>
		</g>
		<g>
			<g>
				<path fill="#1C758A" d="M599.069,464.019c0.368-0.739,2.089-0.812,2.788-0.945c1.314-0.251,2.648-0.404,3.974-0.589
					c1.344-0.188,4.612-0.211,4.816-2.04c0.024-0.222-0.142-0.461-0.325-0.566c-0.793-0.457-1.839,0.076-2.637,0.312
					c-1.419,0.418-2.884,0.693-4.326,1.016c-1.399,0.313-4.705,0.68-5.161,2.446C598.067,464.162,598.823,464.515,599.069,464.019
					L599.069,464.019z"/>
			</g>
		</g>
		<g>
			<g>
				<path fill="#1C758A" d="M614.761,462.898c0.035-0.322,0.112-0.635,0.233-0.936c0.112-0.346-0.127-0.777-0.485-0.854
					c-3.132-0.675-5.067,3.034-5.513,5.587c-0.566,3.236,1.372,6.013,4.813,5.934c2.706-0.062,4.994-2.43,5.574-4.955
					c0.599-2.607-1.803-6.685-4.905-5.551c-0.516,0.188-0.624,0.72-0.3,1.136c1.021,1.312,3.061,1.649,2.744,3.737
					c-0.229,1.512-1.44,2.762-2.896,3.132c-4.356,1.105-3.063-7.189,0.483-7.68c-0.285-0.161-0.569-0.323-0.854-0.485
					c0.121,0.301,0.198,0.613,0.233,0.936C613.964,463.333,614.685,463.333,614.761,462.898L614.761,462.898z"/>
			</g>
		</g>
		<g>
			<g>
				<path fill="#1C758A" d="M626.679,462.014c-1.166-2.811-9.239,0.55-3.6,3.292c2.467,1.2,4.759,1.609,6.791,3.646
					c1.548,1.551-0.446,1.997-1.848,1.94c-1.461-0.06-2.838-0.6-3.938-1.539c-0.322-0.274-0.901-0.209-1.006,0.266
					c-0.863,3.936,10.138,4.669,9.357,0.208c-0.37-2.117-3.275-4.296-5.206-4.913c-1.217-0.39-2.457-0.732-3.629-1.248
					c-0.6-0.264-1.274-0.361-0.534-0.805c0.417-0.249,2.443-1.031,2.998-0.489C626.308,462.607,626.826,462.371,626.679,462.014
					L626.679,462.014z"/>
			</g>
		</g>
		<g>
			<g>
				<path fill="#1C758A" d="M634.51,465.007c-0.798,1.104-0.31,3.267-0.208,4.506c0.127,1.547,0.148,3.86,0.933,5.235
					c0.366,0.642,1.106,0.735,1.727,0.453c0.177-0.081,0.319-0.193,0.457-0.33c0.44-0.439,0.377-1.073,0-1.52
					c-0.519-0.614-1.001-0.614-1.52,0c0.507,0,1.013,0,1.52,0c-0.138-0.137-0.28-0.249-0.457-0.33
					c0.208,0.363,0.417,0.727,0.625,1.09c0.171-1.373-0.569-3.176-0.823-4.523c-0.262-1.388-0.35-3.073-0.832-4.396
					C635.69,464.532,634.914,464.448,634.51,465.007L634.51,465.007z"/>
			</g>
		</g>
		<g>
			<g>
				<path fill="#1C758A" d="M634.324,457.271c-0.055-0.004-0.11-0.008-0.165-0.013c0.167,0.128,0.334,0.255,0.501,0.382
					c-0.009-0.043-0.019-0.086-0.028-0.13c-0.314-1.413-2.609-0.525-1.846,0.778c0.063,0.105,0.124,0.212,0.187,0.317
					c0.191,0.326,0.569,0.563,0.955,0.548c0.146-0.006,0.292-0.014,0.435-0.053c-0.157,0-0.314,0-0.471,0
					c0.034,0.008,0.069,0.015,0.104,0.022c0.625,0.138,1.145-0.382,1.007-1.007c-0.008-0.035-0.015-0.07-0.022-0.104
					c0,0.156,0,0.313,0,0.471c0.039-0.143,0.047-0.289,0.053-0.435c0.015-0.386-0.222-0.764-0.548-0.955
					c-0.105-0.062-0.212-0.124-0.317-0.187c0.154,0.381,0.309,0.761,0.464,1.141c0.01-0.044,0.02-0.087,0.028-0.13
					c-0.167,0.127-0.334,0.254-0.501,0.382c0.055-0.005,0.11-0.009,0.165-0.013C634.979,458.237,634.979,457.319,634.324,457.271
					L634.324,457.271z"/>
			</g>
		</g>
		<g>
			<g>
				<path fill="#1C758A" d="M641.127,464.448c0.775,0.521,0.703,3.952,0.769,4.754c0.133,1.629,0.263,3.273,0.218,4.909
					c-0.038,1.378,2.026,1.635,2.379,0.322c0.884-3.299,0.428-8.156,3.256-10.565c-0.597-0.157-1.192-0.314-1.789-0.473
					c0.754,2.186,1.007,4.524,1.594,6.758c0.439,1.674,1.058,3.77,2.936,4.243c0.577,0.146,0.958-0.443,0.723-0.941
					c-1.63-3.457-1.952-7.066-3.188-10.628c-0.277-0.8-1.155-1.005-1.789-0.473c-3.125,2.62-3.506,7.677-4.078,11.435
					c0.793,0.107,1.586,0.215,2.379,0.322c-0.091-1.746-0.454-10.857-3.314-10.377C640.859,463.795,640.875,464.279,641.127,464.448
					L641.127,464.448z"/>
			</g>
		</g>
		<g>
			<g>
				<path fill="#1C758A" d="M654.206,468.541c1.347,0.185,2.861,0.375,4.146-0.202c1.214-0.544,2.264-2.091,1.627-3.45
					c-0.733-1.568-2.83-2.57-4.544-2.241c-2.068,0.397-3.097,1.99-3.811,3.846c-0.993,2.585-1.06,5.563,1.448,7.298
					c2.169,1.5,5.042,1.757,7.594,1.435c1.413-0.179,5.806-1.127,4.569-3.488c-0.793-1.517-3.475,0.659-4.597,0.914
					c-2.238,0.509-5.846,0.52-7.201-1.703c-0.935-1.533,0.139-3.959,0.921-5.293c1.477-2.519,5.515,0.442,2.474,1.517
					c-0.827,0.292-1.762,0.387-2.626,0.51C653.779,467.742,653.778,468.482,654.206,468.541L654.206,468.541z"/>
			</g>
		</g>
	</g>
	<g>
		<g>
			<path fill="#CF5044" d="M244.989,51.669c0.252,0.818,1.74,0.744,2.416,0.785c0.743,0.044,2.052,0.064,2.508-0.664
				c0.106-0.169,0.106-0.413,0-0.582C249.267,50.178,244.549,50.243,244.989,51.669L244.989,51.669z"/>
		</g>
	</g>
	<g>
		<g>
			<path fill="#CF5044" d="M255.33,51.618c1.418,0.435,3.319,0.909,4.513-0.275c0.187-0.185,0.187-0.5,0-0.685
				c-1.194-1.185-3.095-0.71-4.513-0.275C254.719,50.569,254.719,51.431,255.33,51.618L255.33,51.618z"/>
		</g>
	</g>
	<g>
		<g>
			<path fill="#CF5044" d="M268.98,51.151c0.74,0.232,1.472,0.344,2.25,0.403c0.609,0.046,1.634-0.292,2.068-0.756
				c0.161-0.172,0.161-0.424,0-0.597c-0.467-0.5-1.423-0.735-2.068-0.756c-0.754-0.024-1.541,0.181-2.25,0.403
				C268.337,50.051,268.337,50.949,268.98,51.151L268.98,51.151z"/>
		</g>
	</g>
	<g>
		<g>
			<path fill="#CF5044" d="M280.344,51.565c1.084,0.278,2.358,0.407,3.474,0.331c1.154-0.079,1.154-1.712,0-1.791
				c-1.116-0.077-2.39,0.053-3.474,0.331C279.784,50.579,279.784,51.421,280.344,51.565L280.344,51.565z"/>
		</g>
	</g>
	<g>
		<g>
			<path fill="#CF5044" d="M190.757,112.358c-0.242,0.521-0.355,0.917,0.232,1.281c0.414,0.257,1.06,0.225,1.529,0.247
				c0.591,0.027,1.196-0.094,1.77-0.219c0.345-0.075,1.064-0.464,1.23-0.808c0.569-1.173-1.327-1.347-2-1.263
				c-0.592,0.073-1.147,0.255-1.718,0.42c-0.203,0.059-0.41,0.095-0.617,0.138c-0.094,0.03-0.186,0.066-0.274,0.108
				c-0.052,0.04-0.104,0.08-0.155,0.12c-0.181,0.225-0.158,0.209,0.069-0.048c0.14,0.107,0.279,0.215,0.419,0.322
				c0.01-0.027,0.02-0.055,0.029-0.082C191.379,112.276,190.891,112.069,190.757,112.358L190.757,112.358z"/>
		</g>
	</g>
	<g>
		<g>
			<path fill="#CF5044" d="M204.842,113.073c1.355,0.334,2.752,0.385,4.14,0.464c1.282,0.074,2.378,0.235,3.388-0.667
				c0.204-0.183,0.204-0.558,0-0.74c-1.01-0.902-2.105-0.741-3.388-0.667c-1.388,0.079-2.785,0.13-4.14,0.464
				C204.274,112.067,204.274,112.933,204.842,113.073L204.842,113.073z"/>
		</g>
	</g>
	<g>
		<g>
			<path fill="#CF5044" d="M222.788,113.269c2.55,0.572,6.284,0.857,8.17-1.31c0.361-0.415,0.136-1.106-0.458-1.107
				c-2.512-0.001-5.253,0.326-7.712,0.88C222.026,111.903,222.025,113.097,222.788,113.269L222.788,113.269z"/>
		</g>
	</g>
	<g>
		<g>
			<path fill="#CF5044" d="M241.786,111.776c0.968,0.231,1.974,0.271,2.964,0.351c1.166,0.096,2.115,0.205,3.097-0.533
				c0.438-0.329,0.438-0.858,0-1.188c-0.871-0.654-1.674-0.649-2.722-0.564c-1.112,0.09-2.251,0.122-3.339,0.382
				C241.016,110.408,241.016,111.592,241.786,111.776L241.786,111.776z"/>
		</g>
	</g>
	<g>
		<g>
			<path fill="#CF5044" d="M481.485,273.53c0.963,0.285,2.015,0.431,3.011,0.554c0.818,0.102,1.733,0.25,2.455-0.231
				c0.191-0.127,0.359-0.396,0.26-0.635c-0.826-1.976-4.088-1.497-5.726-1.014C480.828,272.398,480.83,273.336,481.485,273.53
				L481.485,273.53z"/>
		</g>
	</g>
	<g>
		<g>
			<path fill="#CF5044" d="M496.982,273.038c1.271,0.389,2.553,0.646,3.893,0.621c1.665-0.03,1.665-2.554,0-2.584
				c-1.34-0.024-2.621,0.232-3.893,0.621C496.32,271.899,496.32,272.835,496.982,273.038L496.982,273.038z"/>
		</g>
	</g>
	<g>
		<g>
			<path fill="#CF5044" d="M513.16,273.602c1.131,0.806,4.975,1.948,5.535-0.089c0.24-0.872-1.214-1.377-1.801-1.392
				c-1.131-0.029-2.26,0.118-3.385,0.188C512.796,272.353,512.598,273.2,513.16,273.602L513.16,273.602z"/>
		</g>
	</g>
	<g>
		<g>
			<path fill="#CF5044" d="M513.522,322.395c0.798,0.318,1.673,0.388,2.521,0.498c0.975,0.126,2.03,0.252,2.99,0.014
				c1.031-0.255,1.031-1.823,0-2.078c-0.875-0.217-1.728-0.086-2.615-0.016c-0.961,0.076-1.998,0.169-2.896,0.527
				C513.004,321.547,513.004,322.188,513.522,322.395L513.522,322.395z"/>
		</g>
	</g>
	<g>
		<g>
			<path fill="#CF5044" d="M503.668,389.867c2.086-0.045,4.646-0.234,6.281-1.719c0.148-0.134,0.165-0.432,0-0.563
				c-1.041-0.832-2.363-0.633-3.525-0.2c-0.637,0.237-1.259,0.532-1.872,0.823c-0.341,0.162-0.849,0.646-1.017,0.676
				C502.972,388.983,503.113,389.879,503.668,389.867L503.668,389.867z"/>
		</g>
	</g>
	<g>
		<g>
			<path fill="#CF5044" d="M521.517,386.417c1.776,0.654,4.661,0.783,6.055-0.646c0.214-0.22,0.226-0.589,0-0.807
				c-1.601-1.539-4.276-0.365-6.055,0.354C520.988,385.53,520.962,386.213,521.517,386.417L521.517,386.417z"/>
		</g>
	</g>
	<g>
		<g>
			<path fill="#CF5044" d="M546.987,382.522c1.249,0.509,2.481,0.591,3.806,0.398c1.043-0.151,2.591-0.763,2.5-2.054
				c-0.069-0.988-1.541-0.803-2.172-0.638c-1.381,0.359-2.801,0.438-4.134,0.982C546.344,381.475,546.344,382.26,546.987,382.522
				L546.987,382.522z"/>
		</g>
	</g>
	<g>
		<g>
			<path fill="#CF5044" d="M565.168,380.938c0.733-0.022,1.457-0.183,2.179-0.305c0.828-0.141,1.815-0.296,2.497-0.807
				c0.742-0.557,0.563-1.836-0.497-1.838c-0.757-0.001-1.444,0.326-2.126,0.634c-0.795,0.358-1.627,0.752-2.341,1.253
				C564.443,380.181,564.561,380.956,565.168,380.938L565.168,380.938z"/>
		</g>
	</g>
	<g>
		<g>
			<path fill="#CF5044" d="M532.447,321.088c0.351,0.331,0.447,0.656,0.929,0.884c0.677,0.319,1.429,0.407,2.167,0.436
				c1.165,0.045,3.464-0.095,4.111-1.256c0.096-0.173,0.106-0.396,0-0.568c-0.616-0.988-2.326-0.814-3.311-0.659
				c-0.72,0.114-1.429,0.308-2.146,0.441c-0.34,0.064-1.118,0.295-1.447,0.2C532.454,320.48,532.218,320.872,532.447,321.088
				L532.447,321.088z"/>
		</g>
	</g>
	<g>
		<g>
			<path fill="#CF5044" d="M549.377,320.763c0.445,0.389,1.179,0.523,1.748,0.623c0.854,0.148,2.135,0.466,2.636-0.492
				c-0.208,0.16-0.415,0.32-0.624,0.479c0.317-0.096,0.711-0.266,0.926-0.526c0.253-0.308,0.253-0.651,0-0.959
				c-0.215-0.261-0.608-0.431-0.926-0.526c0.209,0.159,0.416,0.319,0.624,0.479c-0.501-0.958-1.782-0.641-2.636-0.492
				c-0.569,0.1-1.303,0.234-1.748,0.623C549.158,320.163,549.158,320.571,549.377,320.763L549.377,320.763z"/>
		</g>
	</g>
	<g>
		<g>
			<path fill="#CF5044" d="M567.298,320.737c1.411,1.621,4.886,1.799,6.634,0.582c0.229-0.159,0.348-0.46,0.188-0.717
				c-1.419-2.285-4.283-0.368-6.313-0.74C567.287,319.768,566.942,320.329,567.298,320.737L567.298,320.737z"/>
		</g>
	</g>
	<g>
		<g>
			<path fill="#CF5044" d="M583.668,320.594c-0.119-0.001-0.516,0.083-0.533,0.051c0,0.148,0,0.297,0,0.445
				c-0.014,0.002-0.027,0.004-0.041,0.006c-0.217,0.028-0.434,0.057-0.65,0.085c1.215,0.397,2.878,0.66,4.008-0.019
				c0.596-0.358,0.596-1.231,0-1.59c-1.13-0.679-2.793-0.416-4.008-0.019c-0.633,0.207-0.91,1.212-0.201,1.542
				c0.232,0.108,0.477,0.35,0.757,0.272c0.253-0.069,0.479-0.195,0.741-0.237C584.053,321.081,583.967,320.597,583.668,320.594
				L583.668,320.594z"/>
		</g>
	</g>
</g>
</svg>
