<svg xmlns="http://www.w3.org/2000/svg" height="1630" width="961">
 <g>
  <title>Labels</title>
 </g>
 <g>
  <title>Shapes</title>
  <rect fill="#00AA7F" height="42.22222" id="svg_2" stroke-width="0" width="277.77777" x="311.61112" y="12.22224" />
  <rect fill="#00AA7F" height="40" id="svg_3" stroke-width="0" width="144.44444" x="620.5" y="258.8889" />
  <rect fill="#00AA7F" height="46.66667" id="svg_4" stroke-width="0" width="182.22222" x="624.94444" y="201.11113" />
  <rect fill="#00AA7F" height="46.66667" id="svg_5" stroke-width="0" width="206.66666" x="622.72222" y="132.22224" />
  <rect fill="#00AA7F" height="60" id="svg_6" stroke-width="0" width="179.99999" x="671.61111" y="418.8889" />
  <rect fill="#00AA7F" height="66.66666" id="svg_7" stroke-width="0" width="95.55555" x="684.94444" y="507.77779" />
  <rect fill="#00AA7F" height="57.77778" id="svg_8" stroke-width="0" width="106.66666" x="669.38888" y="590.00001" />
  <rect fill="#00AA7F" height="53.33333" id="svg_9" stroke-width="0" width="108.88889" x="807.16666" y="625.55556" />
  <rect fill="#00AA7F" height="46.66667" id="svg_10" stroke-width="0" width="111.11111" x="807.16666" y="696.66667" />
  <rect fill="#00AA7F" height="124.44444" id="svg_11" stroke-width="0" width="135.55555" x="651.61111" y="916.66666" />
  <rect fill="#00AA7F" height="117.77777" id="svg_13" stroke-width="0" width="206.66666" x="56.05557" y="994.44444" />
  <rect fill="#00AA7F" height="111.11111" id="svg_14" stroke-width="0" width="208.88888" x="47.16668" y="850" />
  <rect fill="#00AA7F" height="88.88889" id="svg_15" stroke-width="0" width="186.66666" x="56.05557" y="725.55556" />
  <rect fill="#00AA7F" height="140" id="svg_16" stroke-width="0" width="195.55555" x="118.27779" y="1354.44443" />
  <rect fill="#00AA7F" height="93.33333" id="svg_17" stroke-width="0" width="148.88888" x="4.94446" y="572.22223" />
  <rect fill="#00AA7F" height="73.33333" id="svg_18" stroke-width="0" width="104.44444" x="-1.72221" y="423.33334" />
  <rect fill="#00AA7F" height="28.88889" id="svg_19" stroke-width="0" width="146.66666" x="527.16667" y="1605.55553" />
 </g>
</svg>