<svg xmlns="http://www.w3.org/2000/svg" height="915" width="1316">
 <g>
  <title>Labels</title>
 </g>
 <g>
  <title>Shapes</title>
  <rect fill="#00AA7F" height="81.25" id="svg_2" stroke-width="0" width="231.25" x="348.58335" y="180.83329" />
  <rect fill="#00AA7F" height="41.66667" id="svg_3" stroke-width="0" width="189.58334" x="667.33336" y="180.83329" />
  <rect fill="#00AA7F" height="81.25" id="svg_4" stroke-width="0" width="247.91667" x="990.25003" y="184.99996" />
  <rect fill="#00AA7F" height="75" id="svg_5" stroke-width="0" width="291.66667" x="346.50002" y="287.08329" />
  <rect fill="#00AA7F" height="72.91667" id="svg_6" stroke-width="0" width="266.66667" x="673.58336" y="287.08329" />
  <rect fill="#00AA7F" height="81.25" id="svg_7" stroke-width="0" width="260.41667" x="992.33336" y="289.16663" />
  <rect fill="#00AA7F" height="37.5" id="svg_8" stroke-width="0" width="118.75" x="346.50002" y="387.08329" />
  <rect fill="#00AA7F" height="37.5" id="svg_9" stroke-width="0" width="108.33333" x="675.66669" y="387.08329" />
  <rect fill="#00AA7F" height="37.5" id="svg_10" stroke-width="0" width="131.25" x="990.25003" y="391.24996" />
  <rect fill="#00AA7F" height="41.66667" id="svg_11" stroke-width="0" width="275" x="344.41669" y="468.3333" />
  <rect fill="#00AA7F" height="83.33333" id="svg_12" stroke-width="0" width="275" x="671.50002" y="468.3333" />
  <rect fill="#00AA7F" height="93.75" id="svg_14" stroke-width="0" width="270.83334" x="671.50002" y="572.49996" />
  <rect fill="#00AA7F" height="133.33333" id="svg_15" stroke-width="0" width="302.08334" x="342.33335" y="568.3333" />
  <rect fill="#00AA7F" height="120.83333" id="svg_16" stroke-width="0" width="295.83334" x="998.58336" y="572.49996" />
  <rect fill="#00AA7F" height="41.66667" id="svg_17" stroke-width="0" width="172.91667" x="346.50002" y="726.66663" />
  <rect fill="#00AA7F" height="45.83333" id="svg_18" stroke-width="0" width="237.5" x="667.33336" y="720.41663" />
  <rect fill="#00AA7F" height="58.33333" id="svg_19" stroke-width="0" width="200" x="996.50003" y="728.74996" />
  <rect fill="#00AA7F" height="41.66667" id="svg_20" stroke-width="0" width="154.16667" x="352.75002" y="805.8333" />
  <rect fill="#00AA7F" height="87.5" id="svg_21" stroke-width="0" width="289.58334" x="669.41669" y="805.8333" />
  <rect fill="#00AA7F" height="66.66667" id="svg_22" stroke-width="0" width="260.41667" x="996.50003" y="803.74997" />
 </g>
</svg>