<?xml version="1.0" encoding="UTF-8" standalone="no"?>
<!-- Created with Inkscape (http://www.inkscape.org/) -->
<svg
   xmlns:svg="http://www.w3.org/2000/svg"
   xmlns="http://www.w3.org/2000/svg"
   version="1.0"
   width="1062.7791"
   height="643.52698"
   viewBox="0 0 1062.779 643.527"
   id="svg2"
   xml:space="preserve"><defs
   id="defs70" />
	
		<g
   transform="translate(46.3857,37.05382)"
   id="レイヤー_1">
			<g
   id="g7">
				<text
   transform="translate(575.0005,373.2983)"
   id="text9"><tspan
     x="0"
     y="0"
     style="font-size:100px;font-family:ArialMT"
     id="tspan11">R</tspan></text>

				<polygon
   points="739.003,257.297 739.003,266.799 657.5,313.801 653.496,306.799 739.003,257.297 "
   id="polygon13" />
				<text
   transform="translate(824.0015,372.8013)"
   id="text15"><tspan
     x="0"
     y="0"
     style="font-size:100px;font-family:ArialMT"
     id="tspan17">R'</tspan></text>

				<polygon
   points="814.003,300.803 810,307.795 739.003,266.799 739.003,257.297 814.003,300.803 "
   id="polygon19" />
				<text
   transform="translate(702.9976,157.2988)"
   id="text21"><tspan
     x="0"
     y="0"
     style="font-size:100px;font-family:ArialMT"
     id="tspan23">N</tspan></text>

				<rect
   width="8.0080004"
   height="96.000999"
   x="721.992"
   y="173.298"
   id="rect25" /> 
				<rect
   width="7.9879999"
   height="96.000999"
   x="748.00702"
   y="173.298"
   id="rect27" /> 
				<text
   transform="translate(824.4985,85.7979)"
   id="text29"><tspan
     x="0"
     y="0"
     style="font-size:100px;font-family:ArialMT"
     id="tspan31">OH</tspan></text>

				
					<rect
   width="8.0559998"
   height="34.730999"
   x="798.47101"
   y="64.682999"
   transform="matrix(-0.4946,-0.8691,0.8691,-0.4946,1128.082,820.1091)"
   id="rect33" /> 
				<text
   transform="translate(35.001,373.2983)"
   id="text35"><tspan
     x="0"
     y="0"
     style="font-size:100px;font-family:ArialMT"
     id="tspan37">R</tspan></text>

				<polygon
   points="198.999,257.297 198.999,266.799 117.5,313.801 113.5,306.799 198.999,257.297 "
   id="polygon39" />
				<text
   transform="translate(287.501,372.8013)"
   id="text41"><tspan
     x="0"
     y="0"
     style="font-size:100px;font-family:ArialMT"
     id="tspan43">H</tspan></text>

				<polygon
   points="276.499,302.297 272.5,309.299 198.999,266.799 198.999,257.297 276.499,302.297 "
   id="polygon45" />
				<text
   transform="translate(162.998,157.2988)"
   id="text47"><tspan
     x="0"
     y="0"
     style="font-size:100px;font-family:ArialMT"
     id="tspan49">N</tspan></text>

				<rect
   width="7.9980001"
   height="96.000999"
   x="182.00101"
   y="173.298"
   id="rect51" /> 
				<rect
   width="8.0030003"
   height="96.000999"
   x="207.998"
   y="173.298"
   id="rect53" /> 
				<text
   transform="translate(284.499,85.7979)"
   id="text55"><tspan
     x="0"
     y="0"
     style="font-size:100px;font-family:ArialMT"
     id="tspan57">OH</tspan></text>

				
					<rect
   width="8.066"
   height="34.730999"
   x="258.46701"
   y="64.682999"
   transform="matrix(-0.4964,-0.8681,0.8681,-0.4964,321.5785,350.6514)"
   id="rect59" /> 
				<text
   transform="translate(9.765625e-4,555.3013)"
   id="text61"><tspan
     x="0"
     y="0"
     style="font-size:100px;font-family:ArialMT"
     id="tspan63">aldoxime</tspan></text>

				<text
   transform="translate(540.0005,555.3013)"
   id="text65"><tspan
     x="0"
     y="0"
     style="font-size:100px;font-family:ArialMT"
     id="tspan67">ketoxime</tspan></text>

			</g>
		</g>
	</svg>